<?xml version="1.0" encoding="utf-8" standalone="no"?>
<!DOCTYPE svg PUBLIC "-//W3C//DTD SVG 1.1//EN"
  "http://www.w3.org/Graphics/SVG/1.1/DTD/svg11.dtd">
<svg xmlns:xlink="http://www.w3.org/1999/xlink" width="720pt" height="432pt" viewBox="0 0 720 432" xmlns="http://www.w3.org/2000/svg" version="1.1">
 <metadata>
  <rdf:RDF xmlns:dc="http://purl.org/dc/elements/1.1/" xmlns:cc="http://creativecommons.org/ns#" xmlns:rdf="http://www.w3.org/1999/02/22-rdf-syntax-ns#">
   <cc:Work>
    <dc:type rdf:resource="http://purl.org/dc/dcmitype/StillImage"/>
    <dc:date>2024-07-10T17:15:16.021276</dc:date>
    <dc:format>image/svg+xml</dc:format>
    <dc:creator>
     <cc:Agent>
      <dc:title>Matplotlib v3.9.0, https://matplotlib.org/</dc:title>
     </cc:Agent>
    </dc:creator>
   </cc:Work>
  </rdf:RDF>
 </metadata>
 <defs>
  <style type="text/css">*{stroke-linejoin: round; stroke-linecap: butt}</style>
 </defs>
 <g id="figure_1">
  <g id="patch_1">
   <path d="M 0 432 
L 720 432 
L 720 0 
L 0 0 
z
" style="fill: #ffffff"/>
  </g>
  <g id="axes_1">
   <g id="patch_2">
    <path d="M 90 384.48 
L 648 384.48 
L 648 51.84 
L 90 51.84 
z
" style="fill: #ffffff"/>
   </g>
   <g id="matplotlib.axis_1">
    <g id="xtick_1">
     <g id="line2d_1">
      <path d="M 114.855856 384.48 
L 114.855856 51.84 
" clip-path="url(#p8ad3a80bbb)" style="fill: none; stroke: #b0b0b0; stroke-width: 0.8; stroke-linecap: square"/>
     </g>
     <g id="line2d_2">
      <defs>
       <path id="m580bd420be" d="M 0 0 
L 0 3.5 
" style="stroke: #000000; stroke-width: 0.8"/>
      </defs>
      <g>
       <use xlink:href="#m580bd420be" x="114.855856" y="384.48" style="stroke: #000000; stroke-width: 0.8"/>
      </g>
     </g>
     <g id="text_1">
      <!-- 0 -->
      <g transform="translate(111.674606 399.078438) scale(0.1 -0.1)">
       <defs>
        <path id="DejaVuSans-30" d="M 2034 4250 
Q 1547 4250 1301 3770 
Q 1056 3291 1056 2328 
Q 1056 1369 1301 889 
Q 1547 409 2034 409 
Q 2525 409 2770 889 
Q 3016 1369 3016 2328 
Q 3016 3291 2770 3770 
Q 2525 4250 2034 4250 
z
M 2034 4750 
Q 2819 4750 3233 4129 
Q 3647 3509 3647 2328 
Q 3647 1150 3233 529 
Q 2819 -91 2034 -91 
Q 1250 -91 836 529 
Q 422 1150 422 2328 
Q 422 3509 836 4129 
Q 1250 4750 2034 4750 
z
" transform="scale(0.015625)"/>
       </defs>
       <use xlink:href="#DejaVuSans-30"/>
      </g>
     </g>
    </g>
    <g id="xtick_2">
     <g id="line2d_3">
      <path d="M 216.411957 384.48 
L 216.411957 51.84 
" clip-path="url(#p8ad3a80bbb)" style="fill: none; stroke: #b0b0b0; stroke-width: 0.8; stroke-linecap: square"/>
     </g>
     <g id="line2d_4">
      <g>
       <use xlink:href="#m580bd420be" x="216.411957" y="384.48" style="stroke: #000000; stroke-width: 0.8"/>
      </g>
     </g>
     <g id="text_2">
      <!-- 200 -->
      <g transform="translate(206.868207 399.078438) scale(0.1 -0.1)">
       <defs>
        <path id="DejaVuSans-32" d="M 1228 531 
L 3431 531 
L 3431 0 
L 469 0 
L 469 531 
Q 828 903 1448 1529 
Q 2069 2156 2228 2338 
Q 2531 2678 2651 2914 
Q 2772 3150 2772 3378 
Q 2772 3750 2511 3984 
Q 2250 4219 1831 4219 
Q 1534 4219 1204 4116 
Q 875 4013 500 3803 
L 500 4441 
Q 881 4594 1212 4672 
Q 1544 4750 1819 4750 
Q 2544 4750 2975 4387 
Q 3406 4025 3406 3419 
Q 3406 3131 3298 2873 
Q 3191 2616 2906 2266 
Q 2828 2175 2409 1742 
Q 1991 1309 1228 531 
z
" transform="scale(0.015625)"/>
       </defs>
       <use xlink:href="#DejaVuSans-32"/>
       <use xlink:href="#DejaVuSans-30" x="63.623047"/>
       <use xlink:href="#DejaVuSans-30" x="127.246094"/>
      </g>
     </g>
    </g>
    <g id="xtick_3">
     <g id="line2d_5">
      <path d="M 317.968059 384.48 
L 317.968059 51.84 
" clip-path="url(#p8ad3a80bbb)" style="fill: none; stroke: #b0b0b0; stroke-width: 0.8; stroke-linecap: square"/>
     </g>
     <g id="line2d_6">
      <g>
       <use xlink:href="#m580bd420be" x="317.968059" y="384.48" style="stroke: #000000; stroke-width: 0.8"/>
      </g>
     </g>
     <g id="text_3">
      <!-- 400 -->
      <g transform="translate(308.424309 399.078438) scale(0.1 -0.1)">
       <defs>
        <path id="DejaVuSans-34" d="M 2419 4116 
L 825 1625 
L 2419 1625 
L 2419 4116 
z
M 2253 4666 
L 3047 4666 
L 3047 1625 
L 3713 1625 
L 3713 1100 
L 3047 1100 
L 3047 0 
L 2419 0 
L 2419 1100 
L 313 1100 
L 313 1709 
L 2253 4666 
z
" transform="scale(0.015625)"/>
       </defs>
       <use xlink:href="#DejaVuSans-34"/>
       <use xlink:href="#DejaVuSans-30" x="63.623047"/>
       <use xlink:href="#DejaVuSans-30" x="127.246094"/>
      </g>
     </g>
    </g>
    <g id="xtick_4">
     <g id="line2d_7">
      <path d="M 419.524161 384.48 
L 419.524161 51.84 
" clip-path="url(#p8ad3a80bbb)" style="fill: none; stroke: #b0b0b0; stroke-width: 0.8; stroke-linecap: square"/>
     </g>
     <g id="line2d_8">
      <g>
       <use xlink:href="#m580bd420be" x="419.524161" y="384.48" style="stroke: #000000; stroke-width: 0.8"/>
      </g>
     </g>
     <g id="text_4">
      <!-- 600 -->
      <g transform="translate(409.980411 399.078438) scale(0.1 -0.1)">
       <defs>
        <path id="DejaVuSans-36" d="M 2113 2584 
Q 1688 2584 1439 2293 
Q 1191 2003 1191 1497 
Q 1191 994 1439 701 
Q 1688 409 2113 409 
Q 2538 409 2786 701 
Q 3034 994 3034 1497 
Q 3034 2003 2786 2293 
Q 2538 2584 2113 2584 
z
M 3366 4563 
L 3366 3988 
Q 3128 4100 2886 4159 
Q 2644 4219 2406 4219 
Q 1781 4219 1451 3797 
Q 1122 3375 1075 2522 
Q 1259 2794 1537 2939 
Q 1816 3084 2150 3084 
Q 2853 3084 3261 2657 
Q 3669 2231 3669 1497 
Q 3669 778 3244 343 
Q 2819 -91 2113 -91 
Q 1303 -91 875 529 
Q 447 1150 447 2328 
Q 447 3434 972 4092 
Q 1497 4750 2381 4750 
Q 2619 4750 2861 4703 
Q 3103 4656 3366 4563 
z
" transform="scale(0.015625)"/>
       </defs>
       <use xlink:href="#DejaVuSans-36"/>
       <use xlink:href="#DejaVuSans-30" x="63.623047"/>
       <use xlink:href="#DejaVuSans-30" x="127.246094"/>
      </g>
     </g>
    </g>
    <g id="xtick_5">
     <g id="line2d_9">
      <path d="M 521.080262 384.48 
L 521.080262 51.84 
" clip-path="url(#p8ad3a80bbb)" style="fill: none; stroke: #b0b0b0; stroke-width: 0.8; stroke-linecap: square"/>
     </g>
     <g id="line2d_10">
      <g>
       <use xlink:href="#m580bd420be" x="521.080262" y="384.48" style="stroke: #000000; stroke-width: 0.8"/>
      </g>
     </g>
     <g id="text_5">
      <!-- 800 -->
      <g transform="translate(511.536512 399.078438) scale(0.1 -0.1)">
       <defs>
        <path id="DejaVuSans-38" d="M 2034 2216 
Q 1584 2216 1326 1975 
Q 1069 1734 1069 1313 
Q 1069 891 1326 650 
Q 1584 409 2034 409 
Q 2484 409 2743 651 
Q 3003 894 3003 1313 
Q 3003 1734 2745 1975 
Q 2488 2216 2034 2216 
z
M 1403 2484 
Q 997 2584 770 2862 
Q 544 3141 544 3541 
Q 544 4100 942 4425 
Q 1341 4750 2034 4750 
Q 2731 4750 3128 4425 
Q 3525 4100 3525 3541 
Q 3525 3141 3298 2862 
Q 3072 2584 2669 2484 
Q 3125 2378 3379 2068 
Q 3634 1759 3634 1313 
Q 3634 634 3220 271 
Q 2806 -91 2034 -91 
Q 1263 -91 848 271 
Q 434 634 434 1313 
Q 434 1759 690 2068 
Q 947 2378 1403 2484 
z
M 1172 3481 
Q 1172 3119 1398 2916 
Q 1625 2713 2034 2713 
Q 2441 2713 2670 2916 
Q 2900 3119 2900 3481 
Q 2900 3844 2670 4047 
Q 2441 4250 2034 4250 
Q 1625 4250 1398 4047 
Q 1172 3844 1172 3481 
z
" transform="scale(0.015625)"/>
       </defs>
       <use xlink:href="#DejaVuSans-38"/>
       <use xlink:href="#DejaVuSans-30" x="63.623047"/>
       <use xlink:href="#DejaVuSans-30" x="127.246094"/>
      </g>
     </g>
    </g>
    <g id="xtick_6">
     <g id="line2d_11">
      <path d="M 622.636364 384.48 
L 622.636364 51.84 
" clip-path="url(#p8ad3a80bbb)" style="fill: none; stroke: #b0b0b0; stroke-width: 0.8; stroke-linecap: square"/>
     </g>
     <g id="line2d_12">
      <g>
       <use xlink:href="#m580bd420be" x="622.636364" y="384.48" style="stroke: #000000; stroke-width: 0.8"/>
      </g>
     </g>
     <g id="text_6">
      <!-- 1000 -->
      <g transform="translate(609.911364 399.078438) scale(0.1 -0.1)">
       <defs>
        <path id="DejaVuSans-31" d="M 794 531 
L 1825 531 
L 1825 4091 
L 703 3866 
L 703 4441 
L 1819 4666 
L 2450 4666 
L 2450 531 
L 3481 531 
L 3481 0 
L 794 0 
L 794 531 
z
" transform="scale(0.015625)"/>
       </defs>
       <use xlink:href="#DejaVuSans-31"/>
       <use xlink:href="#DejaVuSans-30" x="63.623047"/>
       <use xlink:href="#DejaVuSans-30" x="127.246094"/>
       <use xlink:href="#DejaVuSans-30" x="190.869141"/>
      </g>
     </g>
    </g>
    <g id="text_7">
     <!-- Epoch -->
     <g transform="translate(353.689062 412.756563) scale(0.1 -0.1)">
      <defs>
       <path id="DejaVuSans-45" d="M 628 4666 
L 3578 4666 
L 3578 4134 
L 1259 4134 
L 1259 2753 
L 3481 2753 
L 3481 2222 
L 1259 2222 
L 1259 531 
L 3634 531 
L 3634 0 
L 628 0 
L 628 4666 
z
" transform="scale(0.015625)"/>
       <path id="DejaVuSans-70" d="M 1159 525 
L 1159 -1331 
L 581 -1331 
L 581 3500 
L 1159 3500 
L 1159 2969 
Q 1341 3281 1617 3432 
Q 1894 3584 2278 3584 
Q 2916 3584 3314 3078 
Q 3713 2572 3713 1747 
Q 3713 922 3314 415 
Q 2916 -91 2278 -91 
Q 1894 -91 1617 61 
Q 1341 213 1159 525 
z
M 3116 1747 
Q 3116 2381 2855 2742 
Q 2594 3103 2138 3103 
Q 1681 3103 1420 2742 
Q 1159 2381 1159 1747 
Q 1159 1113 1420 752 
Q 1681 391 2138 391 
Q 2594 391 2855 752 
Q 3116 1113 3116 1747 
z
" transform="scale(0.015625)"/>
       <path id="DejaVuSans-6f" d="M 1959 3097 
Q 1497 3097 1228 2736 
Q 959 2375 959 1747 
Q 959 1119 1226 758 
Q 1494 397 1959 397 
Q 2419 397 2687 759 
Q 2956 1122 2956 1747 
Q 2956 2369 2687 2733 
Q 2419 3097 1959 3097 
z
M 1959 3584 
Q 2709 3584 3137 3096 
Q 3566 2609 3566 1747 
Q 3566 888 3137 398 
Q 2709 -91 1959 -91 
Q 1206 -91 779 398 
Q 353 888 353 1747 
Q 353 2609 779 3096 
Q 1206 3584 1959 3584 
z
" transform="scale(0.015625)"/>
       <path id="DejaVuSans-63" d="M 3122 3366 
L 3122 2828 
Q 2878 2963 2633 3030 
Q 2388 3097 2138 3097 
Q 1578 3097 1268 2742 
Q 959 2388 959 1747 
Q 959 1106 1268 751 
Q 1578 397 2138 397 
Q 2388 397 2633 464 
Q 2878 531 3122 666 
L 3122 134 
Q 2881 22 2623 -34 
Q 2366 -91 2075 -91 
Q 1284 -91 818 406 
Q 353 903 353 1747 
Q 353 2603 823 3093 
Q 1294 3584 2113 3584 
Q 2378 3584 2631 3529 
Q 2884 3475 3122 3366 
z
" transform="scale(0.015625)"/>
       <path id="DejaVuSans-68" d="M 3513 2113 
L 3513 0 
L 2938 0 
L 2938 2094 
Q 2938 2591 2744 2837 
Q 2550 3084 2163 3084 
Q 1697 3084 1428 2787 
Q 1159 2491 1159 1978 
L 1159 0 
L 581 0 
L 581 4863 
L 1159 4863 
L 1159 2956 
Q 1366 3272 1645 3428 
Q 1925 3584 2291 3584 
Q 2894 3584 3203 3211 
Q 3513 2838 3513 2113 
z
" transform="scale(0.015625)"/>
      </defs>
      <use xlink:href="#DejaVuSans-45"/>
      <use xlink:href="#DejaVuSans-70" x="63.183594"/>
      <use xlink:href="#DejaVuSans-6f" x="126.660156"/>
      <use xlink:href="#DejaVuSans-63" x="187.841797"/>
      <use xlink:href="#DejaVuSans-68" x="242.822266"/>
     </g>
    </g>
   </g>
   <g id="matplotlib.axis_2">
    <g id="ytick_1">
     <g id="line2d_13">
      <path d="M 90 339.083369 
L 648 339.083369 
" clip-path="url(#p8ad3a80bbb)" style="fill: none; stroke: #b0b0b0; stroke-width: 0.8; stroke-linecap: square"/>
     </g>
     <g id="line2d_14">
      <defs>
       <path id="m387690930c" d="M 0 0 
L -3.5 0 
" style="stroke: #000000; stroke-width: 0.8"/>
      </defs>
      <g>
       <use xlink:href="#m387690930c" x="90" y="339.083369" style="stroke: #000000; stroke-width: 0.8"/>
      </g>
     </g>
     <g id="text_8">
      <!-- −0.80 -->
      <g transform="translate(52.354687 342.882588) scale(0.1 -0.1)">
       <defs>
        <path id="DejaVuSans-2212" d="M 678 2272 
L 4684 2272 
L 4684 1741 
L 678 1741 
L 678 2272 
z
" transform="scale(0.015625)"/>
        <path id="DejaVuSans-2e" d="M 684 794 
L 1344 794 
L 1344 0 
L 684 0 
L 684 794 
z
" transform="scale(0.015625)"/>
       </defs>
       <use xlink:href="#DejaVuSans-2212"/>
       <use xlink:href="#DejaVuSans-30" x="83.789062"/>
       <use xlink:href="#DejaVuSans-2e" x="147.412109"/>
       <use xlink:href="#DejaVuSans-38" x="179.199219"/>
       <use xlink:href="#DejaVuSans-30" x="242.822266"/>
      </g>
     </g>
    </g>
    <g id="ytick_2">
     <g id="line2d_15">
      <path d="M 90 291.183016 
L 648 291.183016 
" clip-path="url(#p8ad3a80bbb)" style="fill: none; stroke: #b0b0b0; stroke-width: 0.8; stroke-linecap: square"/>
     </g>
     <g id="line2d_16">
      <g>
       <use xlink:href="#m387690930c" x="90" y="291.183016" style="stroke: #000000; stroke-width: 0.8"/>
      </g>
     </g>
     <g id="text_9">
      <!-- −0.75 -->
      <g transform="translate(52.354687 294.982235) scale(0.1 -0.1)">
       <defs>
        <path id="DejaVuSans-37" d="M 525 4666 
L 3525 4666 
L 3525 4397 
L 1831 0 
L 1172 0 
L 2766 4134 
L 525 4134 
L 525 4666 
z
" transform="scale(0.015625)"/>
        <path id="DejaVuSans-35" d="M 691 4666 
L 3169 4666 
L 3169 4134 
L 1269 4134 
L 1269 2991 
Q 1406 3038 1543 3061 
Q 1681 3084 1819 3084 
Q 2600 3084 3056 2656 
Q 3513 2228 3513 1497 
Q 3513 744 3044 326 
Q 2575 -91 1722 -91 
Q 1428 -91 1123 -41 
Q 819 9 494 109 
L 494 744 
Q 775 591 1075 516 
Q 1375 441 1709 441 
Q 2250 441 2565 725 
Q 2881 1009 2881 1497 
Q 2881 1984 2565 2268 
Q 2250 2553 1709 2553 
Q 1456 2553 1204 2497 
Q 953 2441 691 2322 
L 691 4666 
z
" transform="scale(0.015625)"/>
       </defs>
       <use xlink:href="#DejaVuSans-2212"/>
       <use xlink:href="#DejaVuSans-30" x="83.789062"/>
       <use xlink:href="#DejaVuSans-2e" x="147.412109"/>
       <use xlink:href="#DejaVuSans-37" x="179.199219"/>
       <use xlink:href="#DejaVuSans-35" x="242.822266"/>
      </g>
     </g>
    </g>
    <g id="ytick_3">
     <g id="line2d_17">
      <path d="M 90 243.282662 
L 648 243.282662 
" clip-path="url(#p8ad3a80bbb)" style="fill: none; stroke: #b0b0b0; stroke-width: 0.8; stroke-linecap: square"/>
     </g>
     <g id="line2d_18">
      <g>
       <use xlink:href="#m387690930c" x="90" y="243.282662" style="stroke: #000000; stroke-width: 0.8"/>
      </g>
     </g>
     <g id="text_10">
      <!-- −0.70 -->
      <g transform="translate(52.354687 247.081881) scale(0.1 -0.1)">
       <use xlink:href="#DejaVuSans-2212"/>
       <use xlink:href="#DejaVuSans-30" x="83.789062"/>
       <use xlink:href="#DejaVuSans-2e" x="147.412109"/>
       <use xlink:href="#DejaVuSans-37" x="179.199219"/>
       <use xlink:href="#DejaVuSans-30" x="242.822266"/>
      </g>
     </g>
    </g>
    <g id="ytick_4">
     <g id="line2d_19">
      <path d="M 90 195.382309 
L 648 195.382309 
" clip-path="url(#p8ad3a80bbb)" style="fill: none; stroke: #b0b0b0; stroke-width: 0.8; stroke-linecap: square"/>
     </g>
     <g id="line2d_20">
      <g>
       <use xlink:href="#m387690930c" x="90" y="195.382309" style="stroke: #000000; stroke-width: 0.8"/>
      </g>
     </g>
     <g id="text_11">
      <!-- −0.65 -->
      <g transform="translate(52.354687 199.181528) scale(0.1 -0.1)">
       <use xlink:href="#DejaVuSans-2212"/>
       <use xlink:href="#DejaVuSans-30" x="83.789062"/>
       <use xlink:href="#DejaVuSans-2e" x="147.412109"/>
       <use xlink:href="#DejaVuSans-36" x="179.199219"/>
       <use xlink:href="#DejaVuSans-35" x="242.822266"/>
      </g>
     </g>
    </g>
    <g id="ytick_5">
     <g id="line2d_21">
      <path d="M 90 147.481956 
L 648 147.481956 
" clip-path="url(#p8ad3a80bbb)" style="fill: none; stroke: #b0b0b0; stroke-width: 0.8; stroke-linecap: square"/>
     </g>
     <g id="line2d_22">
      <g>
       <use xlink:href="#m387690930c" x="90" y="147.481956" style="stroke: #000000; stroke-width: 0.8"/>
      </g>
     </g>
     <g id="text_12">
      <!-- −0.60 -->
      <g transform="translate(52.354687 151.281174) scale(0.1 -0.1)">
       <use xlink:href="#DejaVuSans-2212"/>
       <use xlink:href="#DejaVuSans-30" x="83.789062"/>
       <use xlink:href="#DejaVuSans-2e" x="147.412109"/>
       <use xlink:href="#DejaVuSans-36" x="179.199219"/>
       <use xlink:href="#DejaVuSans-30" x="242.822266"/>
      </g>
     </g>
    </g>
    <g id="ytick_6">
     <g id="line2d_23">
      <path d="M 90 99.581602 
L 648 99.581602 
" clip-path="url(#p8ad3a80bbb)" style="fill: none; stroke: #b0b0b0; stroke-width: 0.8; stroke-linecap: square"/>
     </g>
     <g id="line2d_24">
      <g>
       <use xlink:href="#m387690930c" x="90" y="99.581602" style="stroke: #000000; stroke-width: 0.8"/>
      </g>
     </g>
     <g id="text_13">
      <!-- −0.55 -->
      <g transform="translate(52.354687 103.380821) scale(0.1 -0.1)">
       <use xlink:href="#DejaVuSans-2212"/>
       <use xlink:href="#DejaVuSans-30" x="83.789062"/>
       <use xlink:href="#DejaVuSans-2e" x="147.412109"/>
       <use xlink:href="#DejaVuSans-35" x="179.199219"/>
       <use xlink:href="#DejaVuSans-35" x="242.822266"/>
      </g>
     </g>
    </g>
    <g id="text_14">
     <!-- Loss -->
     <g transform="translate(46.275 229.127187) rotate(-90) scale(0.1 -0.1)">
      <defs>
       <path id="DejaVuSans-4c" d="M 628 4666 
L 1259 4666 
L 1259 531 
L 3531 531 
L 3531 0 
L 628 0 
L 628 4666 
z
" transform="scale(0.015625)"/>
       <path id="DejaVuSans-73" d="M 2834 3397 
L 2834 2853 
Q 2591 2978 2328 3040 
Q 2066 3103 1784 3103 
Q 1356 3103 1142 2972 
Q 928 2841 928 2578 
Q 928 2378 1081 2264 
Q 1234 2150 1697 2047 
L 1894 2003 
Q 2506 1872 2764 1633 
Q 3022 1394 3022 966 
Q 3022 478 2636 193 
Q 2250 -91 1575 -91 
Q 1294 -91 989 -36 
Q 684 19 347 128 
L 347 722 
Q 666 556 975 473 
Q 1284 391 1588 391 
Q 1994 391 2212 530 
Q 2431 669 2431 922 
Q 2431 1156 2273 1281 
Q 2116 1406 1581 1522 
L 1381 1569 
Q 847 1681 609 1914 
Q 372 2147 372 2553 
Q 372 3047 722 3315 
Q 1072 3584 1716 3584 
Q 2034 3584 2315 3537 
Q 2597 3491 2834 3397 
z
" transform="scale(0.015625)"/>
      </defs>
      <use xlink:href="#DejaVuSans-4c"/>
      <use xlink:href="#DejaVuSans-6f" x="53.962891"/>
      <use xlink:href="#DejaVuSans-73" x="115.144531"/>
      <use xlink:href="#DejaVuSans-73" x="167.244141"/>
     </g>
    </g>
   </g>
   <g id="line2d_25">
    <path d="M 115.363636 66.96 
L 115.871417 76.733408 
L 116.379197 75.942607 
L 116.886978 81.988874 
L 117.394758 82.85602 
L 117.902539 97.668022 
L 118.410319 91.75937 
L 118.9181 111.200091 
L 119.42588 101.868593 
L 119.933661 109.2853 
L 120.441441 114.92666 
L 120.949222 122.835356 
L 121.457002 110.338198 
L 121.964783 126.068224 
L 122.472563 125.582117 
L 122.980344 131.271671 
L 123.488124 134.813687 
L 123.995905 134.260658 
L 124.503686 151.417254 
L 125.011466 146.477217 
L 125.519247 147.357554 
L 126.027027 153.677396 
L 126.534808 155.363665 
L 127.550369 172.664843 
L 128.058149 163.897224 
L 128.56593 171.822194 
L 129.07371 172.317836 
L 129.581491 172.437407 
L 130.089271 175.109708 
L 130.597052 164.664043 
L 131.104832 172.895819 
L 131.612613 170.809781 
L 132.120393 182.998704 
L 132.628174 178.863972 
L 133.135954 179.852973 
L 134.151515 178.395053 
L 134.659296 176.107788 
L 135.167076 190.492099 
L 135.674857 179.392733 
L 136.182637 183.314819 
L 136.690418 169.827461 
L 137.198198 185.650791 
L 137.705979 177.571704 
L 138.213759 190.159196 
L 138.72154 181.71837 
L 139.22932 183.706079 
L 139.737101 197.10807 
L 140.244881 191.329495 
L 140.752662 181.780497 
L 141.768223 190.906543 
L 142.276003 180.44329 
L 142.783784 190.714739 
L 143.291564 184.245747 
L 143.799345 188.218368 
L 144.307125 187.932973 
L 144.814906 179.268195 
L 145.322686 190.92807 
L 145.830467 188.080239 
L 146.338247 190.364877 
L 146.846028 183.631219 
L 147.861589 199.594334 
L 148.369369 186.223806 
L 149.38493 200.1364 
L 149.892711 200.658138 
L 150.400491 193.395148 
L 150.908272 197.116692 
L 151.416052 194.393342 
L 151.923833 198.555426 
L 152.431613 198.840306 
L 152.939394 199.514905 
L 153.447174 201.341588 
L 153.954955 192.898535 
L 154.462735 197.38764 
L 154.970516 198.058527 
L 155.478296 191.427367 
L 155.986077 207.858887 
L 156.493857 206.707832 
L 157.001638 206.058871 
L 157.509419 200.731057 
L 158.017199 202.92673 
L 158.52498 208.83898 
L 159.03276 201.191068 
L 159.540541 204.618196 
L 160.048321 201.758658 
L 160.556102 209.404058 
L 161.063882 211.052698 
L 161.571663 207.220719 
L 162.587224 208.932741 
L 163.095004 210.395115 
L 163.602785 197.052339 
L 164.110565 204.758609 
L 164.618346 216.348021 
L 165.126126 204.060541 
L 165.633907 205.744698 
L 166.141687 211.372696 
L 167.157248 207.937745 
L 167.665029 212.85043 
L 168.172809 211.917331 
L 168.68059 213.670638 
L 169.18837 205.714548 
L 169.696151 219.979745 
L 170.203931 212.435586 
L 170.711712 217.860873 
L 171.219492 214.832543 
L 171.727273 221.136624 
L 172.235053 206.318512 
L 172.742834 204.817938 
L 173.250614 213.707583 
L 173.758395 215.319049 
L 174.266175 221.002892 
L 174.773956 217.479776 
L 175.281736 223.283305 
L 175.789517 215.480932 
L 176.297297 222.663923 
L 176.805078 222.913571 
L 177.312858 216.414773 
L 177.820639 220.309164 
L 178.328419 226.634887 
L 178.8362 214.866861 
L 179.34398 218.803108 
L 179.851761 219.231199 
L 180.359541 228.309108 
L 180.867322 220.41406 
L 181.375102 220.359242 
L 181.882883 222.543952 
L 182.390663 231.067804 
L 182.898444 220.070365 
L 183.406224 220.344167 
L 183.914005 216.88255 
L 184.421785 228.89343 
L 184.929566 223.48436 
L 185.437346 227.642846 
L 186.452907 219.587456 
L 186.960688 231.773581 
L 187.468468 220.510619 
L 187.976249 232.277846 
L 188.484029 225.538021 
L 188.99181 229.078839 
L 189.49959 233.782361 
L 190.007371 234.040003 
L 190.515152 233.619507 
L 191.022932 237.008091 
L 191.530713 237.025279 
L 192.038493 236.101545 
L 192.546274 227.499692 
L 193.054054 236.473105 
L 193.561835 232.947534 
L 194.069615 231.547287 
L 194.577396 226.424582 
L 195.085176 228.210779 
L 195.592957 244.637388 
L 196.100737 240.426026 
L 196.608518 241.689857 
L 197.116298 238.918142 
L 197.624079 231.140951 
L 198.131859 239.048676 
L 198.63964 236.677758 
L 199.14742 237.110017 
L 199.655201 245.227591 
L 200.162981 238.897757 
L 200.670762 238.002745 
L 201.178542 231.938833 
L 201.686323 241.586103 
L 202.194103 244.004131 
L 202.701884 249.604034 
L 203.209664 240.768464 
L 203.717445 241.241038 
L 204.225225 246.084744 
L 204.733006 237.409344 
L 205.240786 242.313693 
L 205.748567 249.02411 
L 206.256347 249.617453 
L 206.764128 245.787359 
L 207.271908 239.533755 
L 207.779689 256.776861 
L 208.287469 248.803869 
L 208.79525 250.094024 
L 209.30303 249.46128 
L 209.810811 246.31041 
L 210.318591 253.630273 
L 210.826372 248.888836 
L 211.334152 254.857559 
L 211.841933 248.490038 
L 212.349713 250.933761 
L 212.857494 249.465449 
L 213.365274 250.350353 
L 213.873055 253.125837 
L 214.380835 250.241061 
L 214.888616 250.391352 
L 215.396396 250.419332 
L 215.904177 251.661008 
L 216.411957 257.382253 
L 217.427518 251.087764 
L 217.935299 253.069021 
L 218.443079 250.423786 
L 218.95086 261.881236 
L 219.45864 263.242483 
L 219.966421 260.953106 
L 220.474201 261.159585 
L 220.981982 261.515329 
L 221.997543 251.561251 
L 222.505324 261.914184 
L 223.013104 255.282453 
L 223.520885 260.496292 
L 224.028665 263.606677 
L 225.044226 260.197594 
L 225.552007 262.571767 
L 226.059787 256.537205 
L 226.567568 267.570733 
L 227.075348 257.260626 
L 227.583129 266.866783 
L 228.090909 265.167266 
L 228.59869 265.347079 
L 229.10647 258.113954 
L 229.614251 262.004747 
L 230.122031 261.39216 
L 230.629812 267.797483 
L 231.137592 267.880509 
L 231.645373 260.683643 
L 232.153153 265.943735 
L 232.660934 268.191028 
L 233.168714 260.576977 
L 233.676495 265.911586 
L 234.184275 269.636386 
L 234.692056 265.260113 
L 235.199836 271.825264 
L 235.707617 267.565765 
L 236.215397 267.989174 
L 236.723178 270.867326 
L 237.230958 265.836212 
L 237.738739 273.664794 
L 238.246519 271.820239 
L 238.7543 268.430684 
L 239.26208 262.994262 
L 239.769861 272.104948 
L 240.277641 269.052864 
L 240.785422 269.792787 
L 241.293202 276.378209 
L 241.800983 271.629234 
L 242.308763 272.869653 
L 242.816544 269.927319 
L 243.324324 275.665751 
L 243.832105 270.230985 
L 244.339885 271.818412 
L 244.847666 266.370798 
L 245.355446 270.893422 
L 245.863227 273.978054 
L 246.371007 280.760819 
L 246.878788 266.197152 
L 247.386568 272.778005 
L 247.894349 276.593482 
L 248.402129 279.26978 
L 248.90991 279.816186 
L 249.41769 273.617 
L 249.925471 274.717121 
L 250.433251 280.254898 
L 250.941032 280.832196 
L 251.448812 282.180195 
L 251.956593 280.221037 
L 252.464373 282.121495 
L 252.972154 281.306996 
L 253.479934 271.382383 
L 253.987715 282.756065 
L 254.495495 277.838698 
L 255.003276 284.614496 
L 255.511057 279.71997 
L 256.018837 282.004265 
L 256.526618 283.755402 
L 257.034398 286.594326 
L 257.542179 285.763382 
L 258.049959 279.413219 
L 259.06552 288.03403 
L 259.573301 280.867942 
L 260.081081 280.768756 
L 260.588862 291.316006 
L 261.096642 285.450636 
L 261.604423 285.926236 
L 262.112203 292.715853 
L 262.619984 289.438389 
L 263.127764 288.100782 
L 263.635545 281.651662 
L 264.143325 291.228412 
L 264.651106 288.94149 
L 265.158886 289.947107 
L 265.666667 290.472043 
L 266.174447 289.987707 
L 266.682228 284.918449 
L 267.190008 286.521806 
L 267.697789 296.06007 
L 268.205569 290.173744 
L 268.71335 288.391372 
L 269.22113 295.760057 
L 269.728911 291.814503 
L 270.236691 291.480173 
L 270.744472 295.752577 
L 271.252252 292.563335 
L 271.760033 291.830891 
L 272.267813 296.358997 
L 272.775594 291.191695 
L 273.283374 293.959014 
L 273.791155 290.662249 
L 274.298935 300.632372 
L 274.806716 292.001054 
L 275.314496 292.266406 
L 275.822277 294.995752 
L 276.330057 294.089891 
L 276.837838 294.422108 
L 277.345618 290.799921 
L 277.853399 297.172581 
L 278.361179 300.233345 
L 278.86896 295.412594 
L 279.884521 295.897273 
L 280.392301 292.049477 
L 280.900082 291.042888 
L 281.407862 293.253123 
L 281.915643 291.553035 
L 282.423423 293.889635 
L 282.931204 294.895024 
L 283.438984 294.017029 
L 283.946765 293.889464 
L 284.454545 295.309697 
L 284.962326 301.719759 
L 285.470106 292.51811 
L 285.977887 288.421922 
L 286.485667 299.619616 
L 286.993448 293.26934 
L 287.501229 292.285763 
L 288.009009 298.146051 
L 288.51679 294.761007 
L 289.02457 299.587868 
L 289.532351 293.955987 
L 290.040131 299.369968 
L 290.547912 300.080712 
L 291.055692 290.433899 
L 291.563473 302.892684 
L 292.071253 299.48577 
L 292.579034 300.164138 
L 293.086814 295.901099 
L 293.594595 299.838087 
L 294.102375 297.122617 
L 294.610156 293.136236 
L 295.117936 302.236072 
L 295.625717 291.05625 
L 296.133497 294.84112 
L 296.641278 292.18475 
L 297.149058 297.413379 
L 297.656839 298.056401 
L 298.164619 291.746838 
L 298.6724 295.456048 
L 299.18018 296.994424 
L 299.687961 299.251882 
L 300.195741 299.87075 
L 300.703522 297.021833 
L 301.211302 291.341302 
L 301.719083 298.70302 
L 302.226863 303.808766 
L 302.734644 299.593578 
L 303.242424 303.472495 
L 304.257985 300.840336 
L 304.765766 301.598418 
L 305.273546 304.455329 
L 305.781327 301.212182 
L 306.289107 302.007951 
L 306.796888 302.511074 
L 307.304668 292.742063 
L 308.320229 300.976238 
L 308.82801 303.340818 
L 309.33579 298.278584 
L 309.843571 294.9081 
L 310.351351 302.603807 
L 310.859132 296.017129 
L 311.366912 305.566755 
L 311.874693 301.953305 
L 312.382473 299.363002 
L 312.890254 300.736011 
L 313.398034 308.645678 
L 313.905815 306.419055 
L 314.921376 297.838444 
L 315.429156 304.005424 
L 315.936937 302.359412 
L 316.444717 298.683777 
L 316.952498 308.177672 
L 317.460278 313.635107 
L 317.968059 306.684064 
L 318.475839 310.852943 
L 318.98362 306.861878 
L 319.4914 304.209734 
L 319.999181 308.859638 
L 320.506962 307.354495 
L 321.014742 311.707526 
L 321.522523 307.622416 
L 322.030303 306.071077 
L 322.538084 308.002484 
L 323.045864 303.895961 
L 323.553645 312.30441 
L 324.061425 308.13753 
L 324.569206 307.576277 
L 325.584767 313.612495 
L 326.092547 311.924684 
L 326.600328 306.629075 
L 327.108108 306.985275 
L 327.615889 308.695242 
L 328.123669 312.362026 
L 329.13923 313.844385 
L 329.647011 311.703815 
L 330.154791 310.946932 
L 330.662572 305.044332 
L 331.170352 312.759282 
L 331.678133 307.427528 
L 332.185913 307.901015 
L 332.693694 313.586114 
L 333.201474 312.146867 
L 333.709255 313.08636 
L 334.217035 307.955832 
L 334.724816 309.339006 
L 335.232596 311.676748 
L 335.740377 319.630783 
L 336.755938 307.387214 
L 337.263718 315.296766 
L 337.771499 309.820145 
L 338.279279 312.801309 
L 338.78706 309.790509 
L 339.29484 308.511546 
L 339.802621 315.536422 
L 340.310401 312.279228 
L 340.818182 309.891065 
L 341.325962 315.262905 
L 341.833743 316.113034 
L 342.341523 308.504579 
L 342.849304 317.2296 
L 343.357084 320.984092 
L 343.864865 312.159201 
L 344.372645 319.083292 
L 344.880426 317.492097 
L 345.388206 318.421712 
L 345.895987 316.423268 
L 346.403767 313.542546 
L 346.911548 321.352798 
L 347.419328 319.952322 
L 347.927109 310.530432 
L 348.434889 316.680168 
L 348.94267 316.072664 
L 349.45045 322.012665 
L 349.958231 320.553375 
L 350.466011 321.8646 
L 350.973792 321.572582 
L 351.481572 324.709177 
L 351.989353 321.034856 
L 352.497133 324.705066 
L 353.004914 323.872124 
L 353.512695 319.462504 
L 354.020475 317.307259 
L 354.528256 325.236739 
L 355.036036 323.821246 
L 355.543817 316.176474 
L 356.051597 321.378037 
L 356.559378 324.024471 
L 357.067158 316.589205 
L 357.574939 318.6757 
L 358.082719 321.82383 
L 358.5905 330.313249 
L 359.09828 323.850082 
L 359.606061 323.655823 
L 360.113841 323.665244 
L 360.621622 323.790183 
L 361.129402 326.144313 
L 361.637183 321.122107 
L 362.144963 330.812889 
L 362.652744 331.848599 
L 363.160524 331.472185 
L 363.668305 326.814173 
L 364.176085 330.320216 
L 364.683866 322.619256 
L 365.191646 333.729528 
L 365.699427 330.418944 
L 366.207207 329.799277 
L 366.714988 323.500963 
L 367.222768 331.33063 
L 367.730549 331.215855 
L 368.238329 324.703238 
L 368.74611 320.909746 
L 369.25389 328.039918 
L 369.761671 326.484068 
L 370.777232 333.18021 
L 371.285012 326.521755 
L 371.792793 323.989982 
L 372.300573 316.446622 
L 372.808354 324.372848 
L 373.316134 328.458644 
L 373.823915 328.268381 
L 374.331695 332.261044 
L 374.839476 323.590612 
L 375.347256 324.805907 
L 375.855037 322.744023 
L 376.362817 327.024079 
L 376.870598 326.915243 
L 377.378378 324.993486 
L 377.886159 328.872117 
L 378.393939 326.256461 
L 378.90172 324.814815 
L 379.4095 332.495732 
L 379.917281 332.637801 
L 380.425061 329.631341 
L 380.932842 329.977891 
L 381.440622 331.577594 
L 381.948403 328.474461 
L 382.456183 333.797993 
L 382.963964 329.240766 
L 383.471744 327.765258 
L 383.979525 328.489536 
L 384.487305 324.998454 
L 384.995086 326.252121 
L 385.502867 331.910954 
L 386.010647 333.577752 
L 386.518428 331.409544 
L 387.026208 327.392385 
L 387.533989 331.071274 
L 388.041769 330.54925 
L 388.54955 331.654453 
L 389.05733 329.94403 
L 389.565111 327.630784 
L 390.072891 333.391429 
L 390.580672 330.962153 
L 391.088452 325.882845 
L 391.596233 337.591885 
L 392.104013 328.982837 
L 392.611794 333.623776 
L 393.119574 333.939776 
L 393.627355 333.488502 
L 394.135135 330.583055 
L 394.642916 332.037834 
L 395.150696 336.80451 
L 395.658477 335.561978 
L 396.166257 338.58928 
L 396.674038 334.04924 
L 397.181818 332.554547 
L 397.689599 332.312893 
L 398.197379 335.013859 
L 398.70516 332.032752 
L 399.720721 337.756738 
L 400.228501 334.428852 
L 400.736282 333.802675 
L 401.244062 337.007507 
L 401.751843 333.205392 
L 402.259623 332.685767 
L 402.767404 336.038891 
L 403.275184 335.695139 
L 403.782965 339.778023 
L 404.798526 331.211972 
L 405.306306 333.268546 
L 405.814087 333.655467 
L 406.321867 329.899605 
L 406.829648 337.38826 
L 407.337428 333.663062 
L 407.845209 338.398446 
L 408.352989 332.241059 
L 408.86077 328.930704 
L 409.36855 334.092466 
L 409.876331 335.619022 
L 410.384111 332.851932 
L 410.891892 343.416655 
L 411.399672 339.258683 
L 411.907453 338.222002 
L 412.923014 334.619001 
L 413.430794 332.336304 
L 413.938575 338.153937 
L 414.446355 337.701178 
L 414.954136 328.686366 
L 415.969697 338.850292 
L 416.477477 338.514248 
L 416.985258 340.339446 
L 417.493038 337.193601 
L 418.000819 336.845052 
L 418.5086 341.001654 
L 419.01638 336.446311 
L 419.524161 335.203436 
L 420.031941 330.025799 
L 420.539722 331.351929 
L 421.047502 346.912991 
L 421.555283 340.464328 
L 422.570844 333.55868 
L 423.078624 332.26704 
L 423.586405 331.995293 
L 424.094185 340.439431 
L 424.601966 329.91211 
L 425.109746 338.254379 
L 425.617527 341.574955 
L 426.125307 337.336926 
L 426.633088 338.147199 
L 427.140868 339.561893 
L 427.648649 335.186192 
L 428.156429 333.263578 
L 428.66421 338.414435 
L 429.17199 337.38158 
L 429.679771 332.160831 
L 430.187551 334.10874 
L 430.695332 343.729687 
L 431.203112 341.338725 
L 431.710893 338.053381 
L 432.218673 345.238655 
L 432.726454 337.621064 
L 433.234234 343.965574 
L 433.742015 340.04897 
L 434.249795 344.391666 
L 434.757576 341.959078 
L 435.265356 348.159691 
L 435.773137 342.387455 
L 436.280917 343.300967 
L 436.788698 343.064395 
L 437.296478 340.521543 
L 437.804259 344.741871 
L 438.312039 336.218647 
L 438.81982 337.386833 
L 439.3276 345.395171 
L 439.835381 338.202645 
L 440.343161 343.34071 
L 441.358722 339.859906 
L 441.866503 349.076116 
L 442.374283 336.391722 
L 442.882064 346.648952 
L 443.389844 347.803434 
L 443.897625 341.271403 
L 444.405405 342.19999 
L 444.913186 347.553843 
L 445.420966 344.612878 
L 445.928747 347.19513 
L 446.436527 341.873768 
L 446.944308 341.162338 
L 447.452088 348.244202 
L 447.959869 336.642056 
L 448.467649 344.70938 
L 448.97543 337.851869 
L 449.48321 346.510481 
L 449.990991 346.534692 
L 450.498771 337.068605 
L 451.006552 345.447305 
L 451.514333 337.493213 
L 452.022113 335.830641 
L 452.529894 336.713262 
L 453.037674 341.038713 
L 453.545455 341.139441 
L 454.053235 343.376741 
L 454.561016 345.000313 
L 455.068796 337.241167 
L 455.576577 341.869828 
L 456.084357 340.370624 
L 456.592138 343.613542 
L 457.099918 343.653913 
L 457.607699 347.855739 
L 458.115479 343.52355 
L 458.62326 344.944353 
L 459.13104 349.139613 
L 459.638821 344.201061 
L 460.146601 345.672799 
L 460.654382 343.89985 
L 461.162162 347.212146 
L 461.669943 351.621766 
L 462.177723 344.199633 
L 462.685504 346.678417 
L 463.193284 341.149262 
L 463.701065 341.372244 
L 464.208845 350.014982 
L 464.716626 346.323758 
L 465.224406 350.872135 
L 465.732187 344.611051 
L 466.239967 344.148642 
L 466.747748 351.104253 
L 467.255528 352.806397 
L 467.763309 343.255 
L 468.271089 344.169826 
L 468.77887 356.982699 
L 469.28665 343.866274 
L 469.794431 345.987715 
L 470.302211 343.254715 
L 470.809992 353.484022 
L 471.317772 346.796617 
L 471.825553 352.63612 
L 472.333333 346.521901 
L 472.841114 348.715747 
L 473.348894 345.929129 
L 473.856675 351.200355 
L 474.364455 349.126822 
L 474.872236 353.6334 
L 475.380016 352.129856 
L 475.887797 345.053132 
L 476.395577 346.967351 
L 476.903358 348.289655 
L 477.411138 346.363672 
L 477.918919 345.610844 
L 478.426699 348.448911 
L 478.93448 348.966024 
L 479.44226 342.96087 
L 479.950041 352.573765 
L 480.457821 355.150706 
L 480.965602 349.925789 
L 481.473382 353.569447 
L 481.981163 349.333131 
L 482.488943 355.350962 
L 482.996724 349.990085 
L 483.504505 342.696261 
L 484.012285 354.233996 
L 484.520066 348.245972 
L 485.027846 353.434458 
L 485.535627 349.885075 
L 486.043407 352.213796 
L 486.551188 351.037102 
L 487.058968 346.623371 
L 487.566749 349.586833 
L 488.074529 353.459868 
L 488.58231 356.126174 
L 489.09009 348.132283 
L 489.597871 347.6914 
L 490.105651 355.401382 
L 490.613432 349.176501 
L 491.121212 350.474593 
L 491.628993 348.41722 
L 492.136773 347.892684 
L 492.644554 356.323403 
L 493.152334 349.125509 
L 493.660115 352.156409 
L 494.167895 350.35348 
L 494.675676 351.974083 
L 495.183456 345.367077 
L 495.691237 353.894412 
L 496.199017 355.800295 
L 497.214578 349.519111 
L 497.722359 344.222303 
L 498.230139 348.997259 
L 498.73792 350.923641 
L 499.2457 351.770744 
L 499.753481 353.093447 
L 500.261261 350.869737 
L 500.769042 354.204931 
L 501.276822 352.987067 
L 501.784603 352.937046 
L 502.292383 349.390061 
L 502.800164 356.479405 
L 503.307944 349.841564 
L 503.815725 349.181811 
L 504.323505 355.575542 
L 504.831286 353.695813 
L 505.339066 354.091184 
L 505.846847 353.042741 
L 506.354627 347.906617 
L 507.370188 349.752828 
L 507.877969 357.379841 
L 508.385749 352.761401 
L 508.89353 352.281804 
L 509.40131 353.645335 
L 509.909091 348.057993 
L 510.416871 352.366257 
L 510.924652 349.708974 
L 511.432432 354.908195 
L 511.940213 350.704599 
L 512.447993 347.909586 
L 512.955774 353.906632 
L 513.463554 354.809238 
L 513.971335 350.059007 
L 514.986896 348.154324 
L 515.494676 351.643864 
L 516.002457 346.788452 
L 516.510238 354.337293 
L 517.018018 356.461646 
L 517.525799 352.804684 
L 518.033579 347.517697 
L 518.54136 349.555656 
L 519.04914 352.180106 
L 519.556921 351.704506 
L 520.064701 346.788623 
L 520.572482 355.218771 
L 521.080262 354.486442 
L 521.588043 359.194132 
L 522.095823 352.152069 
L 522.603604 349.594371 
L 523.111384 354.589682 
L 523.619165 357.093876 
L 524.126945 353.369591 
L 524.634726 352.785383 
L 525.142506 355.391161 
L 525.650287 350.302089 
L 526.158067 358.904513 
L 526.665848 354.156109 
L 527.173628 359.420426 
L 527.681409 355.559725 
L 528.189189 359.451261 
L 528.69697 354.095696 
L 529.20475 351.104767 
L 529.712531 352.883598 
L 530.220311 357.607391 
L 530.728092 356.164375 
L 531.235872 350.458319 
L 531.743653 353.252304 
L 532.251433 358.857575 
L 532.759214 347.811542 
L 533.774775 355.181826 
L 534.282555 354.893063 
L 534.790336 352.744898 
L 535.298116 354.058808 
L 535.805897 353.470204 
L 536.313677 353.164082 
L 536.821458 353.881165 
L 537.329238 348.736361 
L 537.837019 350.074139 
L 538.344799 357.72719 
L 538.85258 350.458433 
L 539.36036 351.163639 
L 539.868141 353.930101 
L 540.375921 352.855561 
L 540.883702 348.374336 
L 542.407043 358.708197 
L 542.914824 359.562895 
L 543.422604 362.443046 
L 543.930385 352.148814 
L 544.438165 356.229242 
L 544.945946 358.536949 
L 545.453726 356.159521 
L 545.961507 351.442923 
L 546.469287 361.578413 
L 546.977068 354.05424 
L 547.484848 354.087758 
L 547.992629 357.330848 
L 548.50041 358.520276 
L 549.00819 360.795606 
L 549.515971 362.053213 
L 550.023751 353.150263 
L 550.531532 353.586349 
L 551.039312 353.542152 
L 551.547093 352.908894 
L 552.054873 348.877631 
L 552.562654 352.600717 
L 553.070434 353.255159 
L 553.578215 358.726812 
L 554.085995 359.825734 
L 554.593776 358.20576 
L 555.101556 352.662786 
L 556.117117 359.685492 
L 556.624898 354.679332 
L 557.132678 353.777811 
L 557.640459 359.074562 
L 558.148239 362.913107 
L 558.65602 356.454737 
L 559.1638 362.774236 
L 559.671581 363.379228 
L 560.179361 359.490376 
L 560.687142 357.049565 
L 561.194922 358.528441 
L 561.702703 352.834034 
L 562.210483 362.683045 
L 562.718264 354.902371 
L 563.226044 353.903434 
L 563.733825 356.283717 
L 564.241605 354.024661 
L 564.749386 360.175368 
L 565.257166 356.074383 
L 565.764947 356.813735 
L 566.272727 358.041821 
L 566.780508 357.087709 
L 567.288288 353.4356 
L 567.796069 358.249614 
L 568.303849 354.513337 
L 568.81163 361.099844 
L 569.31941 360.517007 
L 569.827191 351.347563 
L 570.334971 358.721045 
L 570.842752 353.384666 
L 571.350532 363.259714 
L 571.858313 355.130663 
L 572.366093 354.342946 
L 572.873874 357.881993 
L 573.381654 356.803343 
L 573.889435 360.258336 
L 574.397215 364.680575 
L 574.904996 358.23728 
L 575.920557 355.424737 
L 576.428337 363.77717 
L 576.936118 358.166417 
L 577.443898 355.709103 
L 577.951679 356.123833 
L 578.459459 359.816769 
L 578.96724 357.705834 
L 579.47502 363.496915 
L 579.982801 362.433853 
L 580.490581 360.741017 
L 580.998362 361.945976 
L 582.013923 357.39069 
L 582.521704 356.950436 
L 583.029484 352.669524 
L 583.537265 357.676142 
L 584.045045 357.120542 
L 585.060606 355.009608 
L 585.568387 358.251441 
L 586.076167 357.623037 
L 586.583948 360.41902 
L 587.091728 359.606521 
L 587.599509 357.189407 
L 588.107289 358.602616 
L 588.61507 357.808104 
L 589.12285 360.466301 
L 589.630631 362.270142 
L 590.138411 359.489919 
L 590.646192 363.56064 
L 591.153972 359.988588 
L 591.661753 363.07539 
L 592.169533 359.449034 
L 592.677314 355.004754 
L 593.185094 364.672981 
L 593.692875 355.280098 
L 594.200655 361.070722 
L 594.708436 360.596778 
L 595.216216 362.953706 
L 595.723997 358.812579 
L 596.231777 361.974927 
L 596.739558 360.836262 
L 597.247338 355.07733 
L 597.755119 360.789153 
L 598.262899 359.328949 
L 598.77068 360.095368 
L 599.27846 362.906312 
L 599.786241 357.287393 
L 600.294021 357.121113 
L 600.801802 355.548191 
L 601.309582 362.055897 
L 601.817363 361.571846 
L 602.325143 361.891159 
L 602.832924 362.377322 
L 603.340704 363.161214 
L 603.848485 360.284432 
L 604.356265 360.354096 
L 604.864046 364.674008 
L 605.371826 361.704493 
L 605.879607 367.596643 
L 606.387387 359.225767 
L 606.895168 358.452439 
L 607.402948 365.749747 
L 607.910729 357.418784 
L 608.418509 358.436907 
L 608.92629 356.471182 
L 609.43407 360.841401 
L 609.941851 359.422196 
L 610.449631 360.628583 
L 610.957412 362.742088 
L 611.465192 355.944191 
L 611.972973 356.905212 
L 612.480753 364.246089 
L 612.988534 362.463146 
L 613.496314 357.698468 
L 614.004095 359.140971 
L 614.511876 369.36 
L 615.019656 356.118865 
L 615.527437 354.499918 
L 616.035217 359.750759 
L 616.542998 361.046111 
L 617.050778 361.03726 
L 617.558559 357.024897 
L 618.066339 357.613901 
L 618.57412 364.442233 
L 619.0819 364.884828 
L 619.589681 358.719846 
L 620.097461 357.578041 
L 620.605242 363.081043 
L 621.113022 356.136795 
L 621.620803 365.521968 
L 622.128583 358.780945 
L 622.636364 362.714108 
L 622.636364 362.714108 
" clip-path="url(#p8ad3a80bbb)" style="fill: none; stroke: #0000ff; stroke-width: 1.5; stroke-linecap: square"/>
   </g>
   <g id="line2d_26">
    <path d="M 115.363636 66.96 
L 115.871417 76.733408 
L 116.379197 75.942607 
L 116.886978 81.988874 
L 117.394758 82.85602 
L 117.902539 97.668022 
L 118.410319 91.75937 
L 118.9181 111.200091 
L 119.42588 101.868593 
L 119.933661 109.2853 
L 120.441441 114.92666 
L 120.949222 122.835356 
L 121.457002 110.338198 
L 121.964783 126.068224 
L 122.472563 125.582117 
L 122.980344 131.271671 
L 123.488124 134.813687 
L 123.995905 134.260658 
L 124.503686 151.417254 
L 125.011466 146.477217 
L 125.519247 147.357554 
L 126.027027 153.677396 
L 126.534808 155.363665 
L 127.550369 172.664843 
L 128.058149 163.897224 
L 128.56593 171.822194 
L 129.07371 172.317836 
L 129.581491 172.437407 
L 130.089271 175.109708 
L 130.597052 164.664043 
L 131.104832 172.895819 
L 131.612613 170.809781 
L 132.120393 182.998704 
L 132.628174 178.863972 
L 133.135954 179.852973 
L 134.151515 178.395053 
L 134.659296 176.107788 
L 135.167076 190.492099 
L 135.674857 179.392733 
L 136.182637 183.314819 
L 136.690418 169.827461 
L 137.198198 185.650791 
L 137.705979 177.571704 
L 138.213759 190.159196 
L 138.72154 181.71837 
L 139.22932 183.706079 
L 139.737101 197.10807 
L 140.244881 191.329495 
L 140.752662 181.780497 
L 141.768223 190.906543 
L 142.276003 180.44329 
L 142.783784 190.714739 
L 143.291564 184.245747 
L 143.799345 188.218368 
L 144.307125 187.932973 
L 144.814906 179.268195 
L 145.322686 190.92807 
L 145.830467 188.080239 
L 146.338247 190.364877 
L 146.846028 183.631219 
L 147.861589 199.594334 
L 148.369369 186.223806 
L 149.38493 200.1364 
L 149.892711 200.658138 
L 150.400491 193.395148 
L 150.908272 197.116692 
L 151.416052 194.393342 
L 151.923833 198.555426 
L 152.431613 198.840306 
L 152.939394 199.514905 
L 153.447174 201.341588 
L 153.954955 192.898535 
L 154.462735 197.38764 
L 154.970516 198.058527 
L 155.478296 191.427367 
L 155.986077 207.858887 
L 156.493857 206.707832 
L 157.001638 206.058871 
L 157.509419 200.731057 
L 158.017199 202.92673 
L 158.52498 208.83898 
L 159.03276 201.191068 
L 159.540541 204.618196 
L 160.048321 201.758658 
L 160.556102 209.404058 
L 161.063882 211.052698 
L 161.571663 207.220719 
L 162.587224 208.932741 
L 163.095004 210.395115 
L 163.602785 197.052339 
L 164.110565 204.758609 
L 164.618346 216.348021 
L 165.126126 204.060541 
L 165.633907 205.744698 
L 166.141687 211.372696 
L 167.157248 207.937745 
L 167.665029 212.85043 
L 168.172809 211.917331 
L 168.68059 213.670638 
L 169.18837 205.714548 
L 169.696151 219.979745 
L 170.203931 212.435586 
L 170.711712 217.860873 
L 171.219492 214.832543 
L 171.727273 221.136624 
L 172.235053 206.318512 
L 172.742834 204.817938 
L 173.250614 213.707583 
L 173.758395 215.319049 
L 174.266175 221.002892 
L 174.773956 217.479776 
L 175.281736 223.283305 
L 175.789517 215.480932 
L 176.297297 222.663923 
L 176.805078 222.913571 
L 177.312858 216.414773 
L 177.820639 220.309164 
L 178.328419 226.634887 
L 178.8362 214.866861 
L 179.34398 218.803108 
L 179.851761 219.231199 
L 180.359541 228.309108 
L 180.867322 220.41406 
L 181.375102 220.359242 
L 181.882883 222.543952 
L 182.390663 231.067804 
L 182.898444 220.070365 
L 183.406224 220.344167 
L 183.914005 216.88255 
L 184.421785 228.89343 
L 184.929566 223.48436 
L 185.437346 227.642846 
L 186.452907 219.587456 
L 186.960688 231.773581 
L 187.468468 220.510619 
L 187.976249 232.277846 
L 188.484029 225.538021 
L 188.99181 229.078839 
L 189.49959 233.782361 
L 190.007371 234.040003 
L 190.515152 233.619507 
L 191.022932 237.008091 
L 191.530713 237.025279 
L 192.038493 236.101545 
L 192.546274 227.499692 
L 193.054054 236.473105 
L 193.561835 232.947534 
L 194.069615 231.547287 
L 194.577396 226.424582 
L 195.085176 228.210779 
L 195.592957 244.637388 
L 196.100737 240.426026 
L 196.608518 241.689857 
L 197.116298 238.918142 
L 197.624079 231.140951 
L 198.131859 239.048676 
L 198.63964 236.677758 
L 199.14742 237.110017 
L 199.655201 245.227591 
L 200.162981 238.897757 
L 200.670762 238.002745 
L 201.178542 231.938833 
L 201.686323 241.586103 
L 202.194103 244.004131 
L 202.701884 249.604034 
L 203.209664 240.768464 
L 203.717445 241.241038 
L 204.225225 246.084744 
L 204.733006 237.409344 
L 205.240786 242.313693 
L 205.748567 249.02411 
L 206.256347 249.617453 
L 206.764128 245.787359 
L 207.271908 239.533755 
L 207.779689 256.776861 
L 208.287469 248.803869 
L 208.79525 250.094024 
L 209.30303 249.46128 
L 209.810811 246.31041 
L 210.318591 253.630273 
L 210.826372 248.888836 
L 211.334152 254.857559 
L 211.841933 248.490038 
L 212.349713 250.933761 
L 212.857494 249.465449 
L 213.365274 250.350353 
L 213.873055 253.125837 
L 214.380835 250.241061 
L 214.888616 250.391352 
L 215.396396 250.419332 
L 215.904177 251.661008 
L 216.411957 257.382253 
L 217.427518 251.087764 
L 217.935299 253.069021 
L 218.443079 250.423786 
L 218.95086 261.881236 
L 219.45864 263.242483 
L 219.966421 260.953106 
L 220.474201 261.159585 
L 220.981982 261.515329 
L 221.997543 251.561251 
L 222.505324 261.914184 
L 223.013104 255.282453 
L 223.520885 260.496292 
L 224.028665 263.606677 
L 225.044226 260.197594 
L 225.552007 262.571767 
L 226.059787 256.537205 
L 226.567568 267.570733 
L 227.075348 257.260626 
L 227.583129 266.866783 
L 228.090909 265.167266 
L 228.59869 265.347079 
L 229.10647 258.113954 
L 229.614251 262.004747 
L 230.122031 261.39216 
L 230.629812 267.797483 
L 231.137592 267.880509 
L 231.645373 260.683643 
L 232.153153 265.943735 
L 232.660934 268.191028 
L 233.168714 260.576977 
L 233.676495 265.911586 
L 234.184275 269.636386 
L 234.692056 265.260113 
L 235.199836 271.825264 
L 235.707617 267.565765 
L 236.215397 267.989174 
L 236.723178 270.867326 
L 237.230958 265.836212 
L 237.738739 273.664794 
L 238.246519 271.820239 
L 238.7543 268.430684 
L 239.26208 262.994262 
L 239.769861 272.104948 
L 240.277641 269.052864 
L 240.785422 269.792787 
L 241.293202 276.378209 
L 241.800983 271.629234 
L 242.308763 272.869653 
L 242.816544 269.927319 
L 243.324324 275.665751 
L 243.832105 270.230985 
L 244.339885 271.818412 
L 244.847666 266.370798 
L 245.355446 270.893422 
L 245.863227 273.978054 
L 246.371007 280.760819 
L 246.878788 266.197152 
L 247.386568 272.778005 
L 247.894349 276.593482 
L 248.402129 279.26978 
L 248.90991 279.816186 
L 249.41769 273.617 
L 249.925471 274.717121 
L 250.433251 280.254898 
L 250.941032 280.832196 
L 251.448812 282.180195 
L 251.956593 280.221037 
L 252.464373 282.121495 
L 252.972154 281.306996 
L 253.479934 271.382383 
L 253.987715 282.756065 
L 254.495495 277.838698 
L 255.003276 284.614496 
L 255.511057 279.71997 
L 256.018837 282.004265 
L 256.526618 283.755402 
L 257.034398 286.594326 
L 257.542179 285.763382 
L 258.049959 279.413219 
L 259.06552 288.03403 
L 259.573301 280.867942 
L 260.081081 280.768756 
L 260.588862 291.316006 
L 261.096642 285.450636 
L 261.604423 285.926236 
L 262.112203 292.715853 
L 262.619984 289.438389 
L 263.127764 288.100782 
L 263.635545 281.651662 
L 264.143325 291.228412 
L 264.651106 288.94149 
L 265.158886 289.947107 
L 265.666667 290.472043 
L 266.174447 289.987707 
L 266.682228 284.918449 
L 267.190008 286.521806 
L 267.697789 296.06007 
L 268.205569 290.173744 
L 268.71335 288.391372 
L 269.22113 295.760057 
L 269.728911 291.814503 
L 270.236691 291.480173 
L 270.744472 295.752577 
L 271.252252 292.563335 
L 271.760033 291.830891 
L 272.267813 296.358997 
L 272.775594 291.191695 
L 273.283374 293.959014 
L 273.791155 290.662249 
L 274.298935 300.632372 
L 274.806716 292.001054 
L 275.314496 292.266406 
L 275.822277 294.995752 
L 276.330057 294.089891 
L 276.837838 294.422108 
L 277.345618 290.799921 
L 277.853399 297.172581 
L 278.361179 300.233345 
L 278.86896 295.412594 
L 279.884521 295.897273 
L 280.392301 292.049477 
L 280.900082 291.042888 
L 281.407862 293.253123 
L 281.915643 291.553035 
L 282.423423 293.889635 
L 282.931204 294.895024 
L 283.438984 294.017029 
L 283.946765 293.889464 
L 284.454545 295.309697 
L 284.962326 301.719759 
L 285.470106 292.51811 
L 285.977887 288.421922 
L 286.485667 299.619616 
L 286.993448 293.26934 
L 287.501229 292.285763 
L 288.009009 298.146051 
L 288.51679 294.761007 
L 289.02457 299.587868 
L 289.532351 293.955987 
L 290.040131 299.369968 
L 290.547912 300.080712 
L 291.055692 290.433899 
L 291.563473 302.892684 
L 292.071253 299.48577 
L 292.579034 300.164138 
L 293.086814 295.901099 
L 293.594595 299.838087 
L 294.102375 297.122617 
L 294.610156 293.136236 
L 295.117936 302.236072 
L 295.625717 291.05625 
L 296.133497 294.84112 
L 296.641278 292.18475 
L 297.149058 297.413379 
L 297.656839 298.056401 
L 298.164619 291.746838 
L 298.6724 295.456048 
L 299.18018 296.994424 
L 299.687961 299.251882 
L 300.195741 299.87075 
L 300.703522 297.021833 
L 301.211302 291.341302 
L 301.719083 298.70302 
L 302.226863 303.808766 
L 302.734644 299.593578 
L 303.242424 303.472495 
L 304.257985 300.840336 
L 304.765766 301.598418 
L 305.273546 304.455329 
L 305.781327 301.212182 
L 306.289107 302.007951 
L 306.796888 302.511074 
L 307.304668 292.742063 
L 308.320229 300.976238 
L 308.82801 303.340818 
L 309.33579 298.278584 
L 309.843571 294.9081 
L 310.351351 302.603807 
L 310.859132 296.017129 
L 311.366912 305.566755 
L 311.874693 301.953305 
L 312.382473 299.363002 
L 312.890254 300.736011 
L 313.398034 308.645678 
L 313.905815 306.419055 
L 314.921376 297.838444 
L 315.429156 304.005424 
L 315.936937 302.359412 
L 316.444717 298.683777 
L 316.952498 308.177672 
L 317.460278 313.635107 
L 317.968059 306.684064 
L 318.475839 310.852943 
L 318.98362 306.861878 
L 319.4914 304.209734 
L 319.999181 308.859638 
L 320.506962 307.354495 
L 321.014742 311.707526 
L 321.522523 307.622416 
L 322.030303 306.071077 
L 322.538084 308.002484 
L 323.045864 303.895961 
L 323.553645 312.30441 
L 324.061425 308.13753 
L 324.569206 307.576277 
L 325.584767 313.612495 
L 326.092547 311.924684 
L 326.600328 306.629075 
L 327.108108 306.985275 
L 327.615889 308.695242 
L 328.123669 312.362026 
L 329.13923 313.844385 
L 329.647011 311.703815 
L 330.154791 310.946932 
L 330.662572 305.044332 
L 331.170352 312.759282 
L 331.678133 307.427528 
L 332.185913 307.901015 
L 332.693694 313.586114 
L 333.201474 312.146867 
L 333.709255 313.08636 
L 334.217035 307.955832 
L 334.724816 309.339006 
L 335.232596 311.676748 
L 335.740377 319.630783 
L 336.755938 307.387214 
L 337.263718 315.296766 
L 337.771499 309.820145 
L 338.279279 312.801309 
L 338.78706 309.790509 
L 339.29484 308.511546 
L 339.802621 315.536422 
L 340.310401 312.279228 
L 340.818182 309.891065 
L 341.325962 315.262905 
L 341.833743 316.113034 
L 342.341523 308.504579 
L 342.849304 317.2296 
L 343.357084 320.984092 
L 343.864865 312.159201 
L 344.372645 319.083292 
L 344.880426 317.492097 
L 345.388206 318.421712 
L 345.895987 316.423268 
L 346.403767 313.542546 
L 346.911548 321.352798 
L 347.419328 319.952322 
L 347.927109 310.530432 
L 348.434889 316.680168 
L 348.94267 316.072664 
L 349.45045 322.012665 
L 349.958231 320.553375 
L 350.466011 321.8646 
L 350.973792 321.572582 
L 351.481572 324.709177 
L 351.989353 321.034856 
L 352.497133 324.705066 
L 353.004914 323.872124 
L 353.512695 319.462504 
L 354.020475 317.307259 
L 354.528256 325.236739 
L 355.036036 323.821246 
L 355.543817 316.176474 
L 356.051597 321.378037 
L 356.559378 324.024471 
L 357.067158 316.589205 
L 357.574939 318.6757 
L 358.082719 321.82383 
L 358.5905 330.313249 
L 359.09828 323.850082 
L 359.606061 323.655823 
L 360.113841 323.665244 
L 360.621622 323.790183 
L 361.129402 326.144313 
L 361.637183 321.122107 
L 362.144963 330.812889 
L 362.652744 331.848599 
L 363.160524 331.472185 
L 363.668305 326.814173 
L 364.176085 330.320216 
L 364.683866 322.619256 
L 365.191646 333.729528 
L 365.699427 330.418944 
L 366.207207 329.799277 
L 366.714988 323.500963 
L 367.222768 331.33063 
L 367.730549 331.215855 
L 368.238329 324.703238 
L 368.74611 320.909746 
L 369.25389 328.039918 
L 369.761671 326.484068 
L 370.777232 333.18021 
L 371.285012 326.521755 
L 371.792793 323.989982 
L 372.300573 316.446622 
L 372.808354 324.372848 
L 373.316134 328.458644 
L 373.823915 328.268381 
L 374.331695 332.261044 
L 374.839476 323.590612 
L 375.347256 324.805907 
L 375.855037 322.744023 
L 376.362817 327.024079 
L 376.870598 326.915243 
L 377.378378 324.993486 
L 377.886159 328.872117 
L 378.393939 326.256461 
L 378.90172 324.814815 
L 379.4095 332.495732 
L 379.917281 332.637801 
L 380.425061 329.631341 
L 380.932842 329.977891 
L 381.440622 331.577594 
L 381.948403 328.474461 
L 382.456183 333.797993 
L 382.963964 329.240766 
L 383.471744 327.765258 
L 383.979525 328.489536 
L 384.487305 324.998454 
L 384.995086 326.252121 
L 385.502867 331.910954 
L 386.010647 333.577752 
L 386.518428 331.409544 
L 387.026208 327.392385 
L 387.533989 331.071274 
L 388.041769 330.54925 
L 388.54955 331.654453 
L 389.05733 329.94403 
L 389.565111 327.630784 
L 390.072891 333.391429 
L 390.580672 330.962153 
L 391.088452 325.882845 
L 391.596233 337.591885 
L 392.104013 328.982837 
L 392.611794 333.623776 
L 393.119574 333.939776 
L 393.627355 333.488502 
L 394.135135 330.583055 
L 394.642916 332.037834 
L 395.150696 336.80451 
L 395.658477 335.561978 
L 396.166257 338.58928 
L 396.674038 334.04924 
L 397.181818 332.554547 
L 397.689599 332.312893 
L 398.197379 335.013859 
L 398.70516 332.032752 
L 399.720721 337.756738 
L 400.228501 334.428852 
L 400.736282 333.802675 
L 401.244062 337.007507 
L 401.751843 333.205392 
L 402.259623 332.685767 
L 402.767404 336.038891 
L 403.275184 335.695139 
L 403.782965 339.778023 
L 404.798526 331.211972 
L 405.306306 333.268546 
L 405.814087 333.655467 
L 406.321867 329.899605 
L 406.829648 337.38826 
L 407.337428 333.663062 
L 407.845209 338.398446 
L 408.352989 332.241059 
L 408.86077 328.930704 
L 409.36855 334.092466 
L 409.876331 335.619022 
L 410.384111 332.851932 
L 410.891892 343.416655 
L 411.399672 339.258683 
L 411.907453 338.222002 
L 412.923014 334.619001 
L 413.430794 332.336304 
L 413.938575 338.153937 
L 414.446355 337.701178 
L 414.954136 328.686366 
L 415.969697 338.850292 
L 416.477477 338.514248 
L 416.985258 340.339446 
L 417.493038 337.193601 
L 418.000819 336.845052 
L 418.5086 341.001654 
L 419.01638 336.446311 
L 419.524161 335.203436 
L 420.031941 330.025799 
L 420.539722 331.351929 
L 421.047502 346.912991 
L 421.555283 340.464328 
L 422.570844 333.55868 
L 423.078624 332.26704 
L 423.586405 331.995293 
L 424.094185 340.439431 
L 424.601966 329.91211 
L 425.109746 338.254379 
L 425.617527 341.574955 
L 426.125307 337.336926 
L 426.633088 338.147199 
L 427.140868 339.561893 
L 427.648649 335.186192 
L 428.156429 333.263578 
L 428.66421 338.414435 
L 429.17199 337.38158 
L 429.679771 332.160831 
L 430.187551 334.10874 
L 430.695332 343.729687 
L 431.203112 341.338725 
L 431.710893 338.053381 
L 432.218673 345.238655 
L 432.726454 337.621064 
L 433.234234 343.965574 
L 433.742015 340.04897 
L 434.249795 344.391666 
L 434.757576 341.959078 
L 435.265356 348.159691 
L 435.773137 342.387455 
L 436.280917 343.300967 
L 436.788698 343.064395 
L 437.296478 340.521543 
L 437.804259 344.741871 
L 438.312039 336.218647 
L 438.81982 337.386833 
L 439.3276 345.395171 
L 439.835381 338.202645 
L 440.343161 343.34071 
L 441.358722 339.859906 
L 441.866503 349.076116 
L 442.374283 336.391722 
L 442.882064 346.648952 
L 443.389844 347.803434 
L 443.897625 341.271403 
L 444.405405 342.19999 
L 444.913186 347.553843 
L 445.420966 344.612878 
L 445.928747 347.19513 
L 446.436527 341.873768 
L 446.944308 341.162338 
L 447.452088 348.244202 
L 447.959869 336.642056 
L 448.467649 344.70938 
L 448.97543 337.851869 
L 449.48321 346.510481 
L 449.990991 346.534692 
L 450.498771 337.068605 
L 451.006552 345.447305 
L 451.514333 337.493213 
L 452.022113 335.830641 
L 452.529894 336.713262 
L 453.037674 341.038713 
L 453.545455 341.139441 
L 454.053235 343.376741 
L 454.561016 345.000313 
L 455.068796 337.241167 
L 455.576577 341.869828 
L 456.084357 340.370624 
L 456.592138 343.613542 
L 457.099918 343.653913 
L 457.607699 347.855739 
L 458.115479 343.52355 
L 458.62326 344.944353 
L 459.13104 349.139613 
L 459.638821 344.201061 
L 460.146601 345.672799 
L 460.654382 343.89985 
L 461.162162 347.212146 
L 461.669943 351.621766 
L 462.177723 344.199633 
L 462.685504 346.678417 
L 463.193284 341.149262 
L 463.701065 341.372244 
L 464.208845 350.014982 
L 464.716626 346.323758 
L 465.224406 350.872135 
L 465.732187 344.611051 
L 466.239967 344.148642 
L 466.747748 351.104253 
L 467.255528 352.806397 
L 467.763309 343.255 
L 468.271089 344.169826 
L 468.77887 356.982699 
L 469.28665 343.866274 
L 469.794431 345.987715 
L 470.302211 343.254715 
L 470.809992 353.484022 
L 471.317772 346.796617 
L 471.825553 352.63612 
L 472.333333 346.521901 
L 472.841114 348.715747 
L 473.348894 345.929129 
L 473.856675 351.200355 
L 474.364455 349.126822 
L 474.872236 353.6334 
L 475.380016 352.129856 
L 475.887797 345.053132 
L 476.395577 346.967351 
L 476.903358 348.289655 
L 477.411138 346.363672 
L 477.918919 345.610844 
L 478.426699 348.448911 
L 478.93448 348.966024 
L 479.44226 342.96087 
L 479.950041 352.573765 
L 480.457821 355.150706 
L 480.965602 349.925789 
L 481.473382 353.569447 
L 481.981163 349.333131 
L 482.488943 355.350962 
L 482.996724 349.990085 
L 483.504505 342.696261 
L 484.012285 354.233996 
L 484.520066 348.245972 
L 485.027846 353.434458 
L 485.535627 349.885075 
L 486.043407 352.213796 
L 486.551188 351.037102 
L 487.058968 346.623371 
L 487.566749 349.586833 
L 488.074529 353.459868 
L 488.58231 356.126174 
L 489.09009 348.132283 
L 489.597871 347.6914 
L 490.105651 355.401382 
L 490.613432 349.176501 
L 491.121212 350.474593 
L 491.628993 348.41722 
L 492.136773 347.892684 
L 492.644554 356.323403 
L 493.152334 349.125509 
L 493.660115 352.156409 
L 494.167895 350.35348 
L 494.675676 351.974083 
L 495.183456 345.367077 
L 495.691237 353.894412 
L 496.199017 355.800295 
L 497.214578 349.519111 
L 497.722359 344.222303 
L 498.230139 348.997259 
L 498.73792 350.923641 
L 499.2457 351.770744 
L 499.753481 353.093447 
L 500.261261 350.869737 
L 500.769042 354.204931 
L 501.276822 352.987067 
L 501.784603 352.937046 
L 502.292383 349.390061 
L 502.800164 356.479405 
L 503.307944 349.841564 
L 503.815725 349.181811 
L 504.323505 355.575542 
L 504.831286 353.695813 
L 505.339066 354.091184 
L 505.846847 353.042741 
L 506.354627 347.906617 
L 507.370188 349.752828 
L 507.877969 357.379841 
L 508.385749 352.761401 
L 508.89353 352.281804 
L 509.40131 353.645335 
L 509.909091 348.057993 
L 510.416871 352.366257 
L 510.924652 349.708974 
L 511.432432 354.908195 
L 511.940213 350.704599 
L 512.447993 347.909586 
L 512.955774 353.906632 
L 513.463554 354.809238 
L 513.971335 350.059007 
L 514.986896 348.154324 
L 515.494676 351.643864 
L 516.002457 346.788452 
L 516.510238 354.337293 
L 517.018018 356.461646 
L 517.525799 352.804684 
L 518.033579 347.517697 
L 518.54136 349.555656 
L 519.04914 352.180106 
L 519.556921 351.704506 
L 520.064701 346.788623 
L 520.572482 355.218771 
L 521.080262 354.486442 
L 521.588043 359.194132 
L 522.095823 352.152069 
L 522.603604 349.594371 
L 523.111384 354.589682 
L 523.619165 357.093876 
L 524.126945 353.369591 
L 524.634726 352.785383 
L 525.142506 355.391161 
L 525.650287 350.302089 
L 526.158067 358.904513 
L 526.665848 354.156109 
L 527.173628 359.420426 
L 527.681409 355.559725 
L 528.189189 359.451261 
L 528.69697 354.095696 
L 529.20475 351.104767 
L 529.712531 352.883598 
L 530.220311 357.607391 
L 530.728092 356.164375 
L 531.235872 350.458319 
L 531.743653 353.252304 
L 532.251433 358.857575 
L 532.759214 347.811542 
L 533.774775 355.181826 
L 534.282555 354.893063 
L 534.790336 352.744898 
L 535.298116 354.058808 
L 535.805897 353.470204 
L 536.313677 353.164082 
L 536.821458 353.881165 
L 537.329238 348.736361 
L 537.837019 350.074139 
L 538.344799 357.72719 
L 538.85258 350.458433 
L 539.36036 351.163639 
L 539.868141 353.930101 
L 540.375921 352.855561 
L 540.883702 348.374336 
L 542.407043 358.708197 
L 542.914824 359.562895 
L 543.422604 362.443046 
L 543.930385 352.148814 
L 544.438165 356.229242 
L 544.945946 358.536949 
L 545.453726 356.159521 
L 545.961507 351.442923 
L 546.469287 361.578413 
L 546.977068 354.05424 
L 547.484848 354.087758 
L 547.992629 357.330848 
L 548.50041 358.520276 
L 549.00819 360.795606 
L 549.515971 362.053213 
L 550.023751 353.150263 
L 550.531532 353.586349 
L 551.039312 353.542152 
L 551.547093 352.908894 
L 552.054873 348.877631 
L 552.562654 352.600717 
L 553.070434 353.255159 
L 553.578215 358.726812 
L 554.085995 359.825734 
L 554.593776 358.20576 
L 555.101556 352.662786 
L 556.117117 359.685492 
L 556.624898 354.679332 
L 557.132678 353.777811 
L 557.640459 359.074562 
L 558.148239 362.913107 
L 558.65602 356.454737 
L 559.1638 362.774236 
L 559.671581 363.379228 
L 560.179361 359.490376 
L 560.687142 357.049565 
L 561.194922 358.528441 
L 561.702703 352.834034 
L 562.210483 362.683045 
L 562.718264 354.902371 
L 563.226044 353.903434 
L 563.733825 356.283717 
L 564.241605 354.024661 
L 564.749386 360.175368 
L 565.257166 356.074383 
L 565.764947 356.813735 
L 566.272727 358.041821 
L 566.780508 357.087709 
L 567.288288 353.4356 
L 567.796069 358.249614 
L 568.303849 354.513337 
L 568.81163 361.099844 
L 569.31941 360.517007 
L 569.827191 351.347563 
L 570.334971 358.721045 
L 570.842752 353.384666 
L 571.350532 363.259714 
L 571.858313 355.130663 
L 572.366093 354.342946 
L 572.873874 357.881993 
L 573.381654 356.803343 
L 573.889435 360.258336 
L 574.397215 364.680575 
L 574.904996 358.23728 
L 575.920557 355.424737 
L 576.428337 363.77717 
L 576.936118 358.166417 
L 577.443898 355.709103 
L 577.951679 356.123833 
L 578.459459 359.816769 
L 578.96724 357.705834 
L 579.47502 363.496915 
L 579.982801 362.433853 
L 580.490581 360.741017 
L 580.998362 361.945976 
L 582.013923 357.39069 
L 582.521704 356.950436 
L 583.029484 352.669524 
L 583.537265 357.676142 
L 584.045045 357.120542 
L 585.060606 355.009608 
L 585.568387 358.251441 
L 586.076167 357.623037 
L 586.583948 360.41902 
L 587.091728 359.606521 
L 587.599509 357.189407 
L 588.107289 358.602616 
L 588.61507 357.808104 
L 589.12285 360.466301 
L 589.630631 362.270142 
L 590.138411 359.489919 
L 590.646192 363.56064 
L 591.153972 359.988588 
L 591.661753 363.07539 
L 592.169533 359.449034 
L 592.677314 355.004754 
L 593.185094 364.672981 
L 593.692875 355.280098 
L 594.200655 361.070722 
L 594.708436 360.596778 
L 595.216216 362.953706 
L 595.723997 358.812579 
L 596.231777 361.974927 
L 596.739558 360.836262 
L 597.247338 355.07733 
L 597.755119 360.789153 
L 598.262899 359.328949 
L 598.77068 360.095368 
L 599.27846 362.906312 
L 599.786241 357.287393 
L 600.294021 357.121113 
L 600.801802 355.548191 
L 601.309582 362.055897 
L 601.817363 361.571846 
L 602.325143 361.891159 
L 602.832924 362.377322 
L 603.340704 363.161214 
L 603.848485 360.284432 
L 604.356265 360.354096 
L 604.864046 364.674008 
L 605.371826 361.704493 
L 605.879607 367.596643 
L 606.387387 359.225767 
L 606.895168 358.452439 
L 607.402948 365.749747 
L 607.910729 357.418784 
L 608.418509 358.436907 
L 608.92629 356.471182 
L 609.43407 360.841401 
L 609.941851 359.422196 
L 610.449631 360.628583 
L 610.957412 362.742088 
L 611.465192 355.944191 
L 611.972973 356.905212 
L 612.480753 364.246089 
L 612.988534 362.463146 
L 613.496314 357.698468 
L 614.004095 359.140971 
L 614.511876 369.36 
L 615.019656 356.118865 
L 615.527437 354.499918 
L 616.035217 359.750759 
L 616.542998 361.046111 
L 617.050778 361.03726 
L 617.558559 357.024897 
L 618.066339 357.613901 
L 618.57412 364.442233 
L 619.0819 364.884828 
L 619.589681 358.719846 
L 620.097461 357.578041 
L 620.605242 363.081043 
L 621.113022 356.136795 
L 621.620803 365.521968 
L 622.128583 358.780945 
L 622.636364 362.714108 
L 622.636364 362.714108 
" clip-path="url(#p8ad3a80bbb)" style="fill: none; stroke-dasharray: 5.55,2.4; stroke-dashoffset: 0; stroke: #ff0000; stroke-width: 1.5"/>
   </g>
   <g id="patch_3">
    <path d="M 90 384.48 
L 90 51.84 
" style="fill: none; stroke: #000000; stroke-width: 0.8; stroke-linejoin: miter; stroke-linecap: square"/>
   </g>
   <g id="patch_4">
    <path d="M 648 384.48 
L 648 51.84 
" style="fill: none; stroke: #000000; stroke-width: 0.8; stroke-linejoin: miter; stroke-linecap: square"/>
   </g>
   <g id="patch_5">
    <path d="M 90 384.48 
L 648 384.48 
" style="fill: none; stroke: #000000; stroke-width: 0.8; stroke-linejoin: miter; stroke-linecap: square"/>
   </g>
   <g id="patch_6">
    <path d="M 90 51.84 
L 648 51.84 
" style="fill: none; stroke: #000000; stroke-width: 0.8; stroke-linejoin: miter; stroke-linecap: square"/>
   </g>
   <g id="text_15">
    <!-- Loss Curves over Epochs -->
    <g transform="translate(294.411563 45.84) scale(0.12 -0.12)">
     <defs>
      <path id="DejaVuSans-20" transform="scale(0.015625)"/>
      <path id="DejaVuSans-43" d="M 4122 4306 
L 4122 3641 
Q 3803 3938 3442 4084 
Q 3081 4231 2675 4231 
Q 1875 4231 1450 3742 
Q 1025 3253 1025 2328 
Q 1025 1406 1450 917 
Q 1875 428 2675 428 
Q 3081 428 3442 575 
Q 3803 722 4122 1019 
L 4122 359 
Q 3791 134 3420 21 
Q 3050 -91 2638 -91 
Q 1578 -91 968 557 
Q 359 1206 359 2328 
Q 359 3453 968 4101 
Q 1578 4750 2638 4750 
Q 3056 4750 3426 4639 
Q 3797 4528 4122 4306 
z
" transform="scale(0.015625)"/>
      <path id="DejaVuSans-75" d="M 544 1381 
L 544 3500 
L 1119 3500 
L 1119 1403 
Q 1119 906 1312 657 
Q 1506 409 1894 409 
Q 2359 409 2629 706 
Q 2900 1003 2900 1516 
L 2900 3500 
L 3475 3500 
L 3475 0 
L 2900 0 
L 2900 538 
Q 2691 219 2414 64 
Q 2138 -91 1772 -91 
Q 1169 -91 856 284 
Q 544 659 544 1381 
z
M 1991 3584 
L 1991 3584 
z
" transform="scale(0.015625)"/>
      <path id="DejaVuSans-72" d="M 2631 2963 
Q 2534 3019 2420 3045 
Q 2306 3072 2169 3072 
Q 1681 3072 1420 2755 
Q 1159 2438 1159 1844 
L 1159 0 
L 581 0 
L 581 3500 
L 1159 3500 
L 1159 2956 
Q 1341 3275 1631 3429 
Q 1922 3584 2338 3584 
Q 2397 3584 2469 3576 
Q 2541 3569 2628 3553 
L 2631 2963 
z
" transform="scale(0.015625)"/>
      <path id="DejaVuSans-76" d="M 191 3500 
L 800 3500 
L 1894 563 
L 2988 3500 
L 3597 3500 
L 2284 0 
L 1503 0 
L 191 3500 
z
" transform="scale(0.015625)"/>
      <path id="DejaVuSans-65" d="M 3597 1894 
L 3597 1613 
L 953 1613 
Q 991 1019 1311 708 
Q 1631 397 2203 397 
Q 2534 397 2845 478 
Q 3156 559 3463 722 
L 3463 178 
Q 3153 47 2828 -22 
Q 2503 -91 2169 -91 
Q 1331 -91 842 396 
Q 353 884 353 1716 
Q 353 2575 817 3079 
Q 1281 3584 2069 3584 
Q 2775 3584 3186 3129 
Q 3597 2675 3597 1894 
z
M 3022 2063 
Q 3016 2534 2758 2815 
Q 2500 3097 2075 3097 
Q 1594 3097 1305 2825 
Q 1016 2553 972 2059 
L 3022 2063 
z
" transform="scale(0.015625)"/>
     </defs>
     <use xlink:href="#DejaVuSans-4c"/>
     <use xlink:href="#DejaVuSans-6f" x="53.962891"/>
     <use xlink:href="#DejaVuSans-73" x="115.144531"/>
     <use xlink:href="#DejaVuSans-73" x="167.244141"/>
     <use xlink:href="#DejaVuSans-20" x="219.34375"/>
     <use xlink:href="#DejaVuSans-43" x="251.130859"/>
     <use xlink:href="#DejaVuSans-75" x="320.955078"/>
     <use xlink:href="#DejaVuSans-72" x="384.333984"/>
     <use xlink:href="#DejaVuSans-76" x="425.447266"/>
     <use xlink:href="#DejaVuSans-65" x="484.626953"/>
     <use xlink:href="#DejaVuSans-73" x="546.150391"/>
     <use xlink:href="#DejaVuSans-20" x="598.25"/>
     <use xlink:href="#DejaVuSans-6f" x="630.037109"/>
     <use xlink:href="#DejaVuSans-76" x="691.21875"/>
     <use xlink:href="#DejaVuSans-65" x="750.398438"/>
     <use xlink:href="#DejaVuSans-72" x="811.921875"/>
     <use xlink:href="#DejaVuSans-20" x="853.035156"/>
     <use xlink:href="#DejaVuSans-45" x="884.822266"/>
     <use xlink:href="#DejaVuSans-70" x="948.005859"/>
     <use xlink:href="#DejaVuSans-6f" x="1011.482422"/>
     <use xlink:href="#DejaVuSans-63" x="1072.664062"/>
     <use xlink:href="#DejaVuSans-68" x="1127.644531"/>
     <use xlink:href="#DejaVuSans-73" x="1191.023438"/>
    </g>
   </g>
   <g id="legend_1">
    <g id="patch_7">
     <path d="M 560.010937 89.19625 
L 641 89.19625 
Q 643 89.19625 643 87.19625 
L 643 58.84 
Q 643 56.84 641 56.84 
L 560.010937 56.84 
Q 558.010937 56.84 558.010937 58.84 
L 558.010937 87.19625 
Q 558.010937 89.19625 560.010937 89.19625 
z
" style="fill: #ffffff; opacity: 0.8; stroke: #cccccc; stroke-linejoin: miter"/>
    </g>
    <g id="line2d_27">
     <path d="M 562.010937 64.938437 
L 572.010937 64.938437 
L 582.010937 64.938437 
" style="fill: none; stroke: #0000ff; stroke-width: 1.5; stroke-linecap: square"/>
    </g>
    <g id="text_16">
     <!-- Data Loss -->
     <g transform="translate(590.010937 68.438437) scale(0.1 -0.1)">
      <defs>
       <path id="DejaVuSans-44" d="M 1259 4147 
L 1259 519 
L 2022 519 
Q 2988 519 3436 956 
Q 3884 1394 3884 2338 
Q 3884 3275 3436 3711 
Q 2988 4147 2022 4147 
L 1259 4147 
z
M 628 4666 
L 1925 4666 
Q 3281 4666 3915 4102 
Q 4550 3538 4550 2338 
Q 4550 1131 3912 565 
Q 3275 0 1925 0 
L 628 0 
L 628 4666 
z
" transform="scale(0.015625)"/>
       <path id="DejaVuSans-61" d="M 2194 1759 
Q 1497 1759 1228 1600 
Q 959 1441 959 1056 
Q 959 750 1161 570 
Q 1363 391 1709 391 
Q 2188 391 2477 730 
Q 2766 1069 2766 1631 
L 2766 1759 
L 2194 1759 
z
M 3341 1997 
L 3341 0 
L 2766 0 
L 2766 531 
Q 2569 213 2275 61 
Q 1981 -91 1556 -91 
Q 1019 -91 701 211 
Q 384 513 384 1019 
Q 384 1609 779 1909 
Q 1175 2209 1959 2209 
L 2766 2209 
L 2766 2266 
Q 2766 2663 2505 2880 
Q 2244 3097 1772 3097 
Q 1472 3097 1187 3025 
Q 903 2953 641 2809 
L 641 3341 
Q 956 3463 1253 3523 
Q 1550 3584 1831 3584 
Q 2591 3584 2966 3190 
Q 3341 2797 3341 1997 
z
" transform="scale(0.015625)"/>
       <path id="DejaVuSans-74" d="M 1172 4494 
L 1172 3500 
L 2356 3500 
L 2356 3053 
L 1172 3053 
L 1172 1153 
Q 1172 725 1289 603 
Q 1406 481 1766 481 
L 2356 481 
L 2356 0 
L 1766 0 
Q 1100 0 847 248 
Q 594 497 594 1153 
L 594 3053 
L 172 3053 
L 172 3500 
L 594 3500 
L 594 4494 
L 1172 4494 
z
" transform="scale(0.015625)"/>
      </defs>
      <use xlink:href="#DejaVuSans-44"/>
      <use xlink:href="#DejaVuSans-61" x="77.001953"/>
      <use xlink:href="#DejaVuSans-74" x="138.28125"/>
      <use xlink:href="#DejaVuSans-61" x="177.490234"/>
      <use xlink:href="#DejaVuSans-20" x="238.769531"/>
      <use xlink:href="#DejaVuSans-4c" x="270.556641"/>
      <use xlink:href="#DejaVuSans-6f" x="324.519531"/>
      <use xlink:href="#DejaVuSans-73" x="385.701172"/>
      <use xlink:href="#DejaVuSans-73" x="437.800781"/>
     </g>
    </g>
    <g id="line2d_28">
     <path d="M 562.010937 79.616562 
L 572.010937 79.616562 
L 582.010937 79.616562 
" style="fill: none; stroke-dasharray: 5.55,2.4; stroke-dashoffset: 0; stroke: #ff0000; stroke-width: 1.5"/>
    </g>
    <g id="text_17">
     <!-- Total Loss -->
     <g transform="translate(590.010937 83.116562) scale(0.1 -0.1)">
      <defs>
       <path id="DejaVuSans-54" d="M -19 4666 
L 3928 4666 
L 3928 4134 
L 2272 4134 
L 2272 0 
L 1638 0 
L 1638 4134 
L -19 4134 
L -19 4666 
z
" transform="scale(0.015625)"/>
       <path id="DejaVuSans-6c" d="M 603 4863 
L 1178 4863 
L 1178 0 
L 603 0 
L 603 4863 
z
" transform="scale(0.015625)"/>
      </defs>
      <use xlink:href="#DejaVuSans-54"/>
      <use xlink:href="#DejaVuSans-6f" x="44.083984"/>
      <use xlink:href="#DejaVuSans-74" x="105.265625"/>
      <use xlink:href="#DejaVuSans-61" x="144.474609"/>
      <use xlink:href="#DejaVuSans-6c" x="205.753906"/>
      <use xlink:href="#DejaVuSans-20" x="233.537109"/>
      <use xlink:href="#DejaVuSans-4c" x="265.324219"/>
      <use xlink:href="#DejaVuSans-6f" x="319.287109"/>
      <use xlink:href="#DejaVuSans-73" x="380.46875"/>
      <use xlink:href="#DejaVuSans-73" x="432.568359"/>
     </g>
    </g>
   </g>
  </g>
 </g>
 <defs>
  <clipPath id="p8ad3a80bbb">
   <rect x="90" y="51.84" width="558" height="332.64"/>
  </clipPath>
 </defs>
</svg>
