<?xml version="1.0" encoding="utf-8" standalone="no"?>
<!DOCTYPE svg PUBLIC "-//W3C//DTD SVG 1.1//EN"
  "http://www.w3.org/Graphics/SVG/1.1/DTD/svg11.dtd">
<svg xmlns:xlink="http://www.w3.org/1999/xlink" width="720pt" height="432pt" viewBox="0 0 720 432" xmlns="http://www.w3.org/2000/svg" version="1.1">
 <metadata>
  <rdf:RDF xmlns:dc="http://purl.org/dc/elements/1.1/" xmlns:cc="http://creativecommons.org/ns#" xmlns:rdf="http://www.w3.org/1999/02/22-rdf-syntax-ns#">
   <cc:Work>
    <dc:type rdf:resource="http://purl.org/dc/dcmitype/StillImage"/>
    <dc:date>2024-04-30T11:09:12.841788</dc:date>
    <dc:format>image/svg+xml</dc:format>
    <dc:creator>
     <cc:Agent>
      <dc:title>Matplotlib v3.7.2, https://matplotlib.org/</dc:title>
     </cc:Agent>
    </dc:creator>
   </cc:Work>
  </rdf:RDF>
 </metadata>
 <defs>
  <style type="text/css">*{stroke-linejoin: round; stroke-linecap: butt}</style>
 </defs>
 <g id="figure_1">
  <g id="patch_1">
   <path d="M 0 432 
L 720 432 
L 720 0 
L 0 0 
z
" style="fill: #ffffff"/>
  </g>
  <g id="axes_1">
   <g id="patch_2">
    <path d="M 90 384.48 
L 648 384.48 
L 648 51.84 
L 90 51.84 
z
" style="fill: #ffffff"/>
   </g>
   <g id="matplotlib.axis_1">
    <g id="xtick_1">
     <g id="line2d_1">
      <path d="M 114.347058 384.48 
L 114.347058 51.84 
" clip-path="url(#p9aa59111df)" style="fill: none; stroke: #b0b0b0; stroke-width: 0.8; stroke-linecap: square"/>
     </g>
     <g id="line2d_2">
      <defs>
       <path id="md0931bf621" d="M 0 0 
L 0 3.5 
" style="stroke: #000000; stroke-width: 0.8"/>
      </defs>
      <g>
       <use xlink:href="#md0931bf621" x="114.347058" y="384.48" style="stroke: #000000; stroke-width: 0.8"/>
      </g>
     </g>
     <g id="text_1">
      <!-- 0 -->
      <g transform="translate(111.165808 399.078438) scale(0.1 -0.1)">
       <defs>
        <path id="DejaVuSans-30" d="M 2034 4250 
Q 1547 4250 1301 3770 
Q 1056 3291 1056 2328 
Q 1056 1369 1301 889 
Q 1547 409 2034 409 
Q 2525 409 2770 889 
Q 3016 1369 3016 2328 
Q 3016 3291 2770 3770 
Q 2525 4250 2034 4250 
z
M 2034 4750 
Q 2819 4750 3233 4129 
Q 3647 3509 3647 2328 
Q 3647 1150 3233 529 
Q 2819 -91 2034 -91 
Q 1250 -91 836 529 
Q 422 1150 422 2328 
Q 422 3509 836 4129 
Q 1250 4750 2034 4750 
z
" transform="scale(0.015625)"/>
       </defs>
       <use xlink:href="#DejaVuSans-30"/>
      </g>
     </g>
    </g>
    <g id="xtick_2">
     <g id="line2d_3">
      <path d="M 216.004919 384.48 
L 216.004919 51.84 
" clip-path="url(#p9aa59111df)" style="fill: none; stroke: #b0b0b0; stroke-width: 0.8; stroke-linecap: square"/>
     </g>
     <g id="line2d_4">
      <g>
       <use xlink:href="#md0931bf621" x="216.004919" y="384.48" style="stroke: #000000; stroke-width: 0.8"/>
      </g>
     </g>
     <g id="text_2">
      <!-- 100 -->
      <g transform="translate(206.461169 399.078438) scale(0.1 -0.1)">
       <defs>
        <path id="DejaVuSans-31" d="M 794 531 
L 1825 531 
L 1825 4091 
L 703 3866 
L 703 4441 
L 1819 4666 
L 2450 4666 
L 2450 531 
L 3481 531 
L 3481 0 
L 794 0 
L 794 531 
z
" transform="scale(0.015625)"/>
       </defs>
       <use xlink:href="#DejaVuSans-31"/>
       <use xlink:href="#DejaVuSans-30" x="63.623047"/>
       <use xlink:href="#DejaVuSans-30" x="127.246094"/>
      </g>
     </g>
    </g>
    <g id="xtick_3">
     <g id="line2d_5">
      <path d="M 317.66278 384.48 
L 317.66278 51.84 
" clip-path="url(#p9aa59111df)" style="fill: none; stroke: #b0b0b0; stroke-width: 0.8; stroke-linecap: square"/>
     </g>
     <g id="line2d_6">
      <g>
       <use xlink:href="#md0931bf621" x="317.66278" y="384.48" style="stroke: #000000; stroke-width: 0.8"/>
      </g>
     </g>
     <g id="text_3">
      <!-- 200 -->
      <g transform="translate(308.11903 399.078438) scale(0.1 -0.1)">
       <defs>
        <path id="DejaVuSans-32" d="M 1228 531 
L 3431 531 
L 3431 0 
L 469 0 
L 469 531 
Q 828 903 1448 1529 
Q 2069 2156 2228 2338 
Q 2531 2678 2651 2914 
Q 2772 3150 2772 3378 
Q 2772 3750 2511 3984 
Q 2250 4219 1831 4219 
Q 1534 4219 1204 4116 
Q 875 4013 500 3803 
L 500 4441 
Q 881 4594 1212 4672 
Q 1544 4750 1819 4750 
Q 2544 4750 2975 4387 
Q 3406 4025 3406 3419 
Q 3406 3131 3298 2873 
Q 3191 2616 2906 2266 
Q 2828 2175 2409 1742 
Q 1991 1309 1228 531 
z
" transform="scale(0.015625)"/>
       </defs>
       <use xlink:href="#DejaVuSans-32"/>
       <use xlink:href="#DejaVuSans-30" x="63.623047"/>
       <use xlink:href="#DejaVuSans-30" x="127.246094"/>
      </g>
     </g>
    </g>
    <g id="xtick_4">
     <g id="line2d_7">
      <path d="M 419.320641 384.48 
L 419.320641 51.84 
" clip-path="url(#p9aa59111df)" style="fill: none; stroke: #b0b0b0; stroke-width: 0.8; stroke-linecap: square"/>
     </g>
     <g id="line2d_8">
      <g>
       <use xlink:href="#md0931bf621" x="419.320641" y="384.48" style="stroke: #000000; stroke-width: 0.8"/>
      </g>
     </g>
     <g id="text_4">
      <!-- 300 -->
      <g transform="translate(409.776891 399.078438) scale(0.1 -0.1)">
       <defs>
        <path id="DejaVuSans-33" d="M 2597 2516 
Q 3050 2419 3304 2112 
Q 3559 1806 3559 1356 
Q 3559 666 3084 287 
Q 2609 -91 1734 -91 
Q 1441 -91 1130 -33 
Q 819 25 488 141 
L 488 750 
Q 750 597 1062 519 
Q 1375 441 1716 441 
Q 2309 441 2620 675 
Q 2931 909 2931 1356 
Q 2931 1769 2642 2001 
Q 2353 2234 1838 2234 
L 1294 2234 
L 1294 2753 
L 1863 2753 
Q 2328 2753 2575 2939 
Q 2822 3125 2822 3475 
Q 2822 3834 2567 4026 
Q 2313 4219 1838 4219 
Q 1578 4219 1281 4162 
Q 984 4106 628 3988 
L 628 4550 
Q 988 4650 1302 4700 
Q 1616 4750 1894 4750 
Q 2613 4750 3031 4423 
Q 3450 4097 3450 3541 
Q 3450 3153 3228 2886 
Q 3006 2619 2597 2516 
z
" transform="scale(0.015625)"/>
       </defs>
       <use xlink:href="#DejaVuSans-33"/>
       <use xlink:href="#DejaVuSans-30" x="63.623047"/>
       <use xlink:href="#DejaVuSans-30" x="127.246094"/>
      </g>
     </g>
    </g>
    <g id="xtick_5">
     <g id="line2d_9">
      <path d="M 520.978502 384.48 
L 520.978502 51.84 
" clip-path="url(#p9aa59111df)" style="fill: none; stroke: #b0b0b0; stroke-width: 0.8; stroke-linecap: square"/>
     </g>
     <g id="line2d_10">
      <g>
       <use xlink:href="#md0931bf621" x="520.978502" y="384.48" style="stroke: #000000; stroke-width: 0.8"/>
      </g>
     </g>
     <g id="text_5">
      <!-- 400 -->
      <g transform="translate(511.434752 399.078438) scale(0.1 -0.1)">
       <defs>
        <path id="DejaVuSans-34" d="M 2419 4116 
L 825 1625 
L 2419 1625 
L 2419 4116 
z
M 2253 4666 
L 3047 4666 
L 3047 1625 
L 3713 1625 
L 3713 1100 
L 3047 1100 
L 3047 0 
L 2419 0 
L 2419 1100 
L 313 1100 
L 313 1709 
L 2253 4666 
z
" transform="scale(0.015625)"/>
       </defs>
       <use xlink:href="#DejaVuSans-34"/>
       <use xlink:href="#DejaVuSans-30" x="63.623047"/>
       <use xlink:href="#DejaVuSans-30" x="127.246094"/>
      </g>
     </g>
    </g>
    <g id="xtick_6">
     <g id="line2d_11">
      <path d="M 622.636364 384.48 
L 622.636364 51.84 
" clip-path="url(#p9aa59111df)" style="fill: none; stroke: #b0b0b0; stroke-width: 0.8; stroke-linecap: square"/>
     </g>
     <g id="line2d_12">
      <g>
       <use xlink:href="#md0931bf621" x="622.636364" y="384.48" style="stroke: #000000; stroke-width: 0.8"/>
      </g>
     </g>
     <g id="text_6">
      <!-- 500 -->
      <g transform="translate(613.092614 399.078438) scale(0.1 -0.1)">
       <defs>
        <path id="DejaVuSans-35" d="M 691 4666 
L 3169 4666 
L 3169 4134 
L 1269 4134 
L 1269 2991 
Q 1406 3038 1543 3061 
Q 1681 3084 1819 3084 
Q 2600 3084 3056 2656 
Q 3513 2228 3513 1497 
Q 3513 744 3044 326 
Q 2575 -91 1722 -91 
Q 1428 -91 1123 -41 
Q 819 9 494 109 
L 494 744 
Q 775 591 1075 516 
Q 1375 441 1709 441 
Q 2250 441 2565 725 
Q 2881 1009 2881 1497 
Q 2881 1984 2565 2268 
Q 2250 2553 1709 2553 
Q 1456 2553 1204 2497 
Q 953 2441 691 2322 
L 691 4666 
z
" transform="scale(0.015625)"/>
       </defs>
       <use xlink:href="#DejaVuSans-35"/>
       <use xlink:href="#DejaVuSans-30" x="63.623047"/>
       <use xlink:href="#DejaVuSans-30" x="127.246094"/>
      </g>
     </g>
    </g>
    <g id="text_7">
     <!-- Epoch -->
     <g transform="translate(353.689062 412.756563) scale(0.1 -0.1)">
      <defs>
       <path id="DejaVuSans-45" d="M 628 4666 
L 3578 4666 
L 3578 4134 
L 1259 4134 
L 1259 2753 
L 3481 2753 
L 3481 2222 
L 1259 2222 
L 1259 531 
L 3634 531 
L 3634 0 
L 628 0 
L 628 4666 
z
" transform="scale(0.015625)"/>
       <path id="DejaVuSans-70" d="M 1159 525 
L 1159 -1331 
L 581 -1331 
L 581 3500 
L 1159 3500 
L 1159 2969 
Q 1341 3281 1617 3432 
Q 1894 3584 2278 3584 
Q 2916 3584 3314 3078 
Q 3713 2572 3713 1747 
Q 3713 922 3314 415 
Q 2916 -91 2278 -91 
Q 1894 -91 1617 61 
Q 1341 213 1159 525 
z
M 3116 1747 
Q 3116 2381 2855 2742 
Q 2594 3103 2138 3103 
Q 1681 3103 1420 2742 
Q 1159 2381 1159 1747 
Q 1159 1113 1420 752 
Q 1681 391 2138 391 
Q 2594 391 2855 752 
Q 3116 1113 3116 1747 
z
" transform="scale(0.015625)"/>
       <path id="DejaVuSans-6f" d="M 1959 3097 
Q 1497 3097 1228 2736 
Q 959 2375 959 1747 
Q 959 1119 1226 758 
Q 1494 397 1959 397 
Q 2419 397 2687 759 
Q 2956 1122 2956 1747 
Q 2956 2369 2687 2733 
Q 2419 3097 1959 3097 
z
M 1959 3584 
Q 2709 3584 3137 3096 
Q 3566 2609 3566 1747 
Q 3566 888 3137 398 
Q 2709 -91 1959 -91 
Q 1206 -91 779 398 
Q 353 888 353 1747 
Q 353 2609 779 3096 
Q 1206 3584 1959 3584 
z
" transform="scale(0.015625)"/>
       <path id="DejaVuSans-63" d="M 3122 3366 
L 3122 2828 
Q 2878 2963 2633 3030 
Q 2388 3097 2138 3097 
Q 1578 3097 1268 2742 
Q 959 2388 959 1747 
Q 959 1106 1268 751 
Q 1578 397 2138 397 
Q 2388 397 2633 464 
Q 2878 531 3122 666 
L 3122 134 
Q 2881 22 2623 -34 
Q 2366 -91 2075 -91 
Q 1284 -91 818 406 
Q 353 903 353 1747 
Q 353 2603 823 3093 
Q 1294 3584 2113 3584 
Q 2378 3584 2631 3529 
Q 2884 3475 3122 3366 
z
" transform="scale(0.015625)"/>
       <path id="DejaVuSans-68" d="M 3513 2113 
L 3513 0 
L 2938 0 
L 2938 2094 
Q 2938 2591 2744 2837 
Q 2550 3084 2163 3084 
Q 1697 3084 1428 2787 
Q 1159 2491 1159 1978 
L 1159 0 
L 581 0 
L 581 4863 
L 1159 4863 
L 1159 2956 
Q 1366 3272 1645 3428 
Q 1925 3584 2291 3584 
Q 2894 3584 3203 3211 
Q 3513 2838 3513 2113 
z
" transform="scale(0.015625)"/>
      </defs>
      <use xlink:href="#DejaVuSans-45"/>
      <use xlink:href="#DejaVuSans-70" x="63.183594"/>
      <use xlink:href="#DejaVuSans-6f" x="126.660156"/>
      <use xlink:href="#DejaVuSans-63" x="187.841797"/>
      <use xlink:href="#DejaVuSans-68" x="242.822266"/>
     </g>
    </g>
   </g>
   <g id="matplotlib.axis_2">
    <g id="ytick_1">
     <g id="line2d_13">
      <path d="M 90 371.119496 
L 648 371.119496 
" clip-path="url(#p9aa59111df)" style="fill: none; stroke: #b0b0b0; stroke-width: 0.8; stroke-linecap: square"/>
     </g>
     <g id="line2d_14">
      <defs>
       <path id="m1b718c83cc" d="M 0 0 
L -3.5 0 
" style="stroke: #000000; stroke-width: 0.8"/>
      </defs>
      <g>
       <use xlink:href="#m1b718c83cc" x="90" y="371.119496" style="stroke: #000000; stroke-width: 0.8"/>
      </g>
     </g>
     <g id="text_8">
      <!-- −0.7 -->
      <g transform="translate(58.717187 374.918715) scale(0.1 -0.1)">
       <defs>
        <path id="DejaVuSans-2212" d="M 678 2272 
L 4684 2272 
L 4684 1741 
L 678 1741 
L 678 2272 
z
" transform="scale(0.015625)"/>
        <path id="DejaVuSans-2e" d="M 684 794 
L 1344 794 
L 1344 0 
L 684 0 
L 684 794 
z
" transform="scale(0.015625)"/>
        <path id="DejaVuSans-37" d="M 525 4666 
L 3525 4666 
L 3525 4397 
L 1831 0 
L 1172 0 
L 2766 4134 
L 525 4134 
L 525 4666 
z
" transform="scale(0.015625)"/>
       </defs>
       <use xlink:href="#DejaVuSans-2212"/>
       <use xlink:href="#DejaVuSans-30" x="83.789062"/>
       <use xlink:href="#DejaVuSans-2e" x="147.412109"/>
       <use xlink:href="#DejaVuSans-37" x="179.199219"/>
      </g>
     </g>
    </g>
    <g id="ytick_2">
     <g id="line2d_15">
      <path d="M 90 315.519144 
L 648 315.519144 
" clip-path="url(#p9aa59111df)" style="fill: none; stroke: #b0b0b0; stroke-width: 0.8; stroke-linecap: square"/>
     </g>
     <g id="line2d_16">
      <g>
       <use xlink:href="#m1b718c83cc" x="90" y="315.519144" style="stroke: #000000; stroke-width: 0.8"/>
      </g>
     </g>
     <g id="text_9">
      <!-- −0.6 -->
      <g transform="translate(58.717187 319.318363) scale(0.1 -0.1)">
       <defs>
        <path id="DejaVuSans-36" d="M 2113 2584 
Q 1688 2584 1439 2293 
Q 1191 2003 1191 1497 
Q 1191 994 1439 701 
Q 1688 409 2113 409 
Q 2538 409 2786 701 
Q 3034 994 3034 1497 
Q 3034 2003 2786 2293 
Q 2538 2584 2113 2584 
z
M 3366 4563 
L 3366 3988 
Q 3128 4100 2886 4159 
Q 2644 4219 2406 4219 
Q 1781 4219 1451 3797 
Q 1122 3375 1075 2522 
Q 1259 2794 1537 2939 
Q 1816 3084 2150 3084 
Q 2853 3084 3261 2657 
Q 3669 2231 3669 1497 
Q 3669 778 3244 343 
Q 2819 -91 2113 -91 
Q 1303 -91 875 529 
Q 447 1150 447 2328 
Q 447 3434 972 4092 
Q 1497 4750 2381 4750 
Q 2619 4750 2861 4703 
Q 3103 4656 3366 4563 
z
" transform="scale(0.015625)"/>
       </defs>
       <use xlink:href="#DejaVuSans-2212"/>
       <use xlink:href="#DejaVuSans-30" x="83.789062"/>
       <use xlink:href="#DejaVuSans-2e" x="147.412109"/>
       <use xlink:href="#DejaVuSans-36" x="179.199219"/>
      </g>
     </g>
    </g>
    <g id="ytick_3">
     <g id="line2d_17">
      <path d="M 90 259.918792 
L 648 259.918792 
" clip-path="url(#p9aa59111df)" style="fill: none; stroke: #b0b0b0; stroke-width: 0.8; stroke-linecap: square"/>
     </g>
     <g id="line2d_18">
      <g>
       <use xlink:href="#m1b718c83cc" x="90" y="259.918792" style="stroke: #000000; stroke-width: 0.8"/>
      </g>
     </g>
     <g id="text_10">
      <!-- −0.5 -->
      <g transform="translate(58.717187 263.718011) scale(0.1 -0.1)">
       <use xlink:href="#DejaVuSans-2212"/>
       <use xlink:href="#DejaVuSans-30" x="83.789062"/>
       <use xlink:href="#DejaVuSans-2e" x="147.412109"/>
       <use xlink:href="#DejaVuSans-35" x="179.199219"/>
      </g>
     </g>
    </g>
    <g id="ytick_4">
     <g id="line2d_19">
      <path d="M 90 204.31844 
L 648 204.31844 
" clip-path="url(#p9aa59111df)" style="fill: none; stroke: #b0b0b0; stroke-width: 0.8; stroke-linecap: square"/>
     </g>
     <g id="line2d_20">
      <g>
       <use xlink:href="#m1b718c83cc" x="90" y="204.31844" style="stroke: #000000; stroke-width: 0.8"/>
      </g>
     </g>
     <g id="text_11">
      <!-- −0.4 -->
      <g transform="translate(58.717187 208.117658) scale(0.1 -0.1)">
       <use xlink:href="#DejaVuSans-2212"/>
       <use xlink:href="#DejaVuSans-30" x="83.789062"/>
       <use xlink:href="#DejaVuSans-2e" x="147.412109"/>
       <use xlink:href="#DejaVuSans-34" x="179.199219"/>
      </g>
     </g>
    </g>
    <g id="ytick_5">
     <g id="line2d_21">
      <path d="M 90 148.718087 
L 648 148.718087 
" clip-path="url(#p9aa59111df)" style="fill: none; stroke: #b0b0b0; stroke-width: 0.8; stroke-linecap: square"/>
     </g>
     <g id="line2d_22">
      <g>
       <use xlink:href="#m1b718c83cc" x="90" y="148.718087" style="stroke: #000000; stroke-width: 0.8"/>
      </g>
     </g>
     <g id="text_12">
      <!-- −0.3 -->
      <g transform="translate(58.717187 152.517306) scale(0.1 -0.1)">
       <use xlink:href="#DejaVuSans-2212"/>
       <use xlink:href="#DejaVuSans-30" x="83.789062"/>
       <use xlink:href="#DejaVuSans-2e" x="147.412109"/>
       <use xlink:href="#DejaVuSans-33" x="179.199219"/>
      </g>
     </g>
    </g>
    <g id="ytick_6">
     <g id="line2d_23">
      <path d="M 90 93.117735 
L 648 93.117735 
" clip-path="url(#p9aa59111df)" style="fill: none; stroke: #b0b0b0; stroke-width: 0.8; stroke-linecap: square"/>
     </g>
     <g id="line2d_24">
      <g>
       <use xlink:href="#m1b718c83cc" x="90" y="93.117735" style="stroke: #000000; stroke-width: 0.8"/>
      </g>
     </g>
     <g id="text_13">
      <!-- −0.2 -->
      <g transform="translate(58.717187 96.916954) scale(0.1 -0.1)">
       <use xlink:href="#DejaVuSans-2212"/>
       <use xlink:href="#DejaVuSans-30" x="83.789062"/>
       <use xlink:href="#DejaVuSans-2e" x="147.412109"/>
       <use xlink:href="#DejaVuSans-32" x="179.199219"/>
      </g>
     </g>
    </g>
    <g id="text_14">
     <!-- Loss -->
     <g transform="translate(52.6375 229.127187) rotate(-90) scale(0.1 -0.1)">
      <defs>
       <path id="DejaVuSans-4c" d="M 628 4666 
L 1259 4666 
L 1259 531 
L 3531 531 
L 3531 0 
L 628 0 
L 628 4666 
z
" transform="scale(0.015625)"/>
       <path id="DejaVuSans-73" d="M 2834 3397 
L 2834 2853 
Q 2591 2978 2328 3040 
Q 2066 3103 1784 3103 
Q 1356 3103 1142 2972 
Q 928 2841 928 2578 
Q 928 2378 1081 2264 
Q 1234 2150 1697 2047 
L 1894 2003 
Q 2506 1872 2764 1633 
Q 3022 1394 3022 966 
Q 3022 478 2636 193 
Q 2250 -91 1575 -91 
Q 1294 -91 989 -36 
Q 684 19 347 128 
L 347 722 
Q 666 556 975 473 
Q 1284 391 1588 391 
Q 1994 391 2212 530 
Q 2431 669 2431 922 
Q 2431 1156 2273 1281 
Q 2116 1406 1581 1522 
L 1381 1569 
Q 847 1681 609 1914 
Q 372 2147 372 2553 
Q 372 3047 722 3315 
Q 1072 3584 1716 3584 
Q 2034 3584 2315 3537 
Q 2597 3491 2834 3397 
z
" transform="scale(0.015625)"/>
      </defs>
      <use xlink:href="#DejaVuSans-4c"/>
      <use xlink:href="#DejaVuSans-6f" x="53.962891"/>
      <use xlink:href="#DejaVuSans-73" x="115.144531"/>
      <use xlink:href="#DejaVuSans-73" x="167.244141"/>
     </g>
    </g>
   </g>
   <g id="line2d_25">
    <path d="M 115.363636 66.96 
L 116.380215 68.763069 
L 117.396794 72.657761 
L 118.413372 75.29688 
L 119.429951 85.831299 
L 120.446529 90.943296 
L 121.463108 98.321333 
L 122.479687 97.699669 
L 123.496265 108.821353 
L 124.512844 118.546948 
L 125.529422 116.14364 
L 126.546001 120.803974 
L 127.56258 132.940599 
L 128.579158 132.092454 
L 129.595737 126.277027 
L 130.612316 139.016393 
L 131.628894 143.449318 
L 132.645473 137.628556 
L 133.662051 148.074275 
L 134.67863 153.437634 
L 135.695209 149.319476 
L 136.711787 154.541805 
L 137.728366 156.191219 
L 138.744944 161.476283 
L 139.761523 163.607757 
L 140.778102 165.354819 
L 141.79468 171.168175 
L 142.811259 173.269375 
L 143.827837 174.048986 
L 144.844416 175.906936 
L 145.860995 179.137644 
L 146.877573 184.533413 
L 147.894152 181.984851 
L 148.910731 189.016662 
L 149.927309 191.182602 
L 150.943888 189.384901 
L 151.960466 189.88035 
L 152.977045 194.712833 
L 153.993624 195.626812 
L 155.010202 196.203007 
L 157.043359 198.958564 
L 158.059938 202.521123 
L 159.076517 201.677535 
L 160.093095 204.810313 
L 161.109674 206.683225 
L 164.15941 211.194975 
L 165.175988 210.4779 
L 166.192567 211.406212 
L 167.209146 210.500319 
L 168.225724 215.38624 
L 169.242303 212.081199 
L 171.27546 217.696689 
L 172.292039 222.093988 
L 173.308617 220.344855 
L 174.325196 220.270687 
L 175.341774 219.44685 
L 176.358353 227.524224 
L 177.374932 225.894181 
L 178.39151 228.001313 
L 179.408089 228.67108 
L 180.424668 227.957319 
L 181.441246 234.710884 
L 182.457825 233.254198 
L 183.474403 231.089202 
L 184.490982 235.346848 
L 185.507561 235.226598 
L 186.524139 237.546541 
L 187.540718 232.755932 
L 188.557296 237.705947 
L 189.573875 241.497622 
L 190.590454 236.433969 
L 191.607032 236.524773 
L 192.623611 239.030336 
L 193.640189 244.961572 
L 194.656768 244.670317 
L 195.673347 244.591344 
L 196.689925 245.377964 
L 197.706504 247.376181 
L 198.723083 243.247468 
L 199.739661 244.105539 
L 200.75624 245.68791 
L 201.772818 249.662437 
L 202.789397 248.899164 
L 203.805976 246.139895 
L 204.822554 251.264941 
L 205.839133 254.029048 
L 206.855711 250.033576 
L 208.888869 254.013041 
L 209.905447 252.112125 
L 210.922026 249.214014 
L 211.938604 256.418437 
L 212.955183 258.75631 
L 213.971762 258.423282 
L 214.98834 254.807085 
L 216.004919 254.347047 
L 217.021498 259.246406 
L 218.038076 256.849262 
L 219.054655 259.973672 
L 220.071233 254.196308 
L 221.087812 260.563174 
L 222.104391 262.878395 
L 223.120969 261.398113 
L 224.137548 262.383608 
L 225.154126 264.770612 
L 226.170705 260.979781 
L 227.187284 264.187506 
L 228.203862 268.764526 
L 229.220441 272.493019 
L 230.237019 266.574708 
L 231.253598 265.440412 
L 232.270177 272.046054 
L 233.286755 270.557355 
L 234.303334 271.677732 
L 235.319913 271.70103 
L 236.336491 272.201649 
L 237.35307 273.645741 
L 238.369648 272.40344 
L 239.386227 274.304373 
L 240.402806 273.607862 
L 241.419384 274.658777 
L 242.435963 269.993339 
L 243.452541 273.218363 
L 244.46912 272.621703 
L 245.485699 271.886517 
L 246.502277 272.782832 
L 247.518856 273.896117 
L 248.535435 272.674628 
L 249.552013 278.146969 
L 250.568592 275.211492 
L 251.58517 278.942007 
L 252.601749 276.961901 
L 253.618328 276.022835 
L 254.634906 277.36585 
L 255.651485 278.462034 
L 256.668063 280.555745 
L 257.684642 279.807203 
L 258.701221 281.25736 
L 259.717799 283.343813 
L 260.734378 280.575464 
L 262.767535 281.24374 
L 263.784114 283.858384 
L 264.800692 280.727677 
L 265.817271 283.913298 
L 266.83385 282.572868 
L 267.850428 283.632135 
L 268.867007 287.005263 
L 269.883585 282.411209 
L 270.900164 282.949343 
L 271.916743 279.070359 
L 272.933321 281.508498 
L 273.9499 286.682144 
L 274.966478 283.963804 
L 275.983057 281.784425 
L 276.999636 286.639393 
L 278.016214 290.261141 
L 279.032793 287.270386 
L 280.049371 290.023292 
L 281.06595 291.054124 
L 282.082529 288.500259 
L 283.099107 291.674082 
L 284.115686 292.330195 
L 285.132265 285.440175 
L 286.148843 291.253895 
L 287.165422 287.716124 
L 288.182 295.041278 
L 289.198579 289.60516 
L 290.215158 289.0029 
L 291.231736 288.878955 
L 292.248315 290.837717 
L 293.264893 292.302622 
L 294.281472 290.829167 
L 295.298051 291.093959 
L 296.314629 293.840966 
L 297.331208 293.639439 
L 298.347786 290.346013 
L 299.364365 295.29235 
L 300.380944 291.524685 
L 301.397522 295.209399 
L 302.414101 293.996925 
L 303.43068 299.218459 
L 304.447258 293.968457 
L 305.463837 296.365436 
L 307.496994 292.615468 
L 308.513573 298.550216 
L 309.530151 298.246087 
L 310.54673 300.334594 
L 311.563308 297.561439 
L 312.579887 295.937295 
L 313.596466 294.91551 
L 314.613044 298.920195 
L 315.629623 296.830296 
L 316.646201 302.617006 
L 317.66278 301.984256 
L 318.679359 300.54076 
L 319.695937 299.438445 
L 320.712516 300.031625 
L 321.729095 300.923598 
L 322.745673 300.49622 
L 323.762252 300.441008 
L 324.77883 299.222038 
L 325.795409 301.068355 
L 326.811988 301.849342 
L 327.828566 303.197327 
L 328.845145 300.601573 
L 329.861723 302.205303 
L 331.894881 304.743791 
L 332.911459 303.303907 
L 333.928038 302.377302 
L 334.944617 302.364244 
L 335.961195 305.761201 
L 336.977774 300.218536 
L 337.994352 304.14902 
L 339.010931 304.252087 
L 340.02751 301.286055 
L 341.044088 306.193119 
L 342.060667 304.421699 
L 343.077245 304.318268 
L 344.093824 307.590948 
L 345.110403 304.653881 
L 346.126981 309.578742 
L 347.14356 309.46053 
L 348.160138 309.088596 
L 349.176717 307.323571 
L 350.193296 310.256463 
L 351.209874 309.851554 
L 352.226453 311.492301 
L 353.243032 309.382286 
L 354.25961 311.181577 
L 355.276189 309.784411 
L 356.292767 310.069551 
L 357.309346 309.678859 
L 358.325925 310.447153 
L 359.342503 313.632607 
L 360.359082 310.659152 
L 361.37566 311.791857 
L 362.392239 307.862268 
L 363.408818 311.513843 
L 364.425396 313.89435 
L 365.441975 315.577518 
L 366.458553 307.796783 
L 367.475132 313.427634 
L 368.491711 309.666564 
L 369.508289 312.100063 
L 370.524868 313.363242 
L 372.558025 313.861143 
L 373.574604 314.62324 
L 374.591182 311.942414 
L 375.607761 310.466838 
L 376.62434 313.188957 
L 377.640918 311.325009 
L 378.657497 307.781174 
L 379.674075 312.80138 
L 380.690654 311.827318 
L 381.707233 315.615894 
L 382.723811 313.464685 
L 383.74039 309.702356 
L 384.756968 313.871616 
L 385.773547 311.012528 
L 386.790126 314.293725 
L 387.806704 313.924674 
L 388.823283 312.125316 
L 389.839862 311.944999 
L 390.85644 312.894803 
L 391.873019 313.446458 
L 392.889597 315.865309 
L 393.906176 316.817962 
L 394.922755 315.347258 
L 395.939333 314.430794 
L 396.955912 318.41745 
L 397.97249 317.587151 
L 398.989069 313.564404 
L 400.005648 316.83102 
L 401.022226 315.582058 
L 402.038805 318.809534 
L 403.055383 317.282988 
L 404.071962 317.208389 
L 406.105119 317.995739 
L 407.121698 317.719514 
L 408.138277 314.500123 
L 409.154855 318.178906 
L 410.171434 315.511071 
L 411.188012 314.051237 
L 412.204591 316.347568 
L 413.22117 316.668234 
L 414.237748 319.264883 
L 415.254327 317.24892 
L 416.270905 309.647906 
L 417.287484 315.633624 
L 418.304063 320.395501 
L 419.320641 316.585648 
L 420.33722 317.895357 
L 421.353799 314.151917 
L 422.370377 315.697386 
L 423.386956 320.24395 
L 424.403534 316.560462 
L 425.420113 317.846309 
L 426.436692 315.0596 
L 427.45327 321.713428 
L 428.469849 322.453155 
L 429.486427 321.771755 
L 430.503006 323.002457 
L 431.519585 319.331827 
L 433.552742 326.753419 
L 434.56932 321.033122 
L 435.585899 321.779112 
L 436.602478 324.830514 
L 437.619056 323.927206 
L 438.635635 326.163653 
L 439.652214 322.659023 
L 440.668792 321.654869 
L 441.685371 323.507914 
L 442.701949 321.277698 
L 443.718528 322.434762 
L 444.735107 325.803682 
L 445.751685 322.68696 
L 446.768264 326.161366 
L 447.784842 326.211076 
L 448.801421 322.885803 
L 449.818 326.803991 
L 450.834578 327.884898 
L 451.851157 327.13006 
L 452.867735 323.677129 
L 453.884314 325.084071 
L 454.900893 323.669937 
L 455.917471 324.01019 
L 456.93405 326.812144 
L 457.950629 322.667474 
L 458.967207 322.609047 
L 459.983786 326.486838 
L 461.000364 328.791189 
L 462.016943 326.644122 
L 463.033522 326.256545 
L 464.0501 326.359181 
L 465.066679 325.718577 
L 466.083257 326.765615 
L 467.099836 326.723791 
L 468.116415 327.319855 
L 469.132993 330.544945 
L 470.149572 327.432399 
L 471.16615 331.181307 
L 472.182729 330.369632 
L 473.199308 328.762191 
L 474.215886 329.131607 
L 475.232465 328.015339 
L 476.249044 331.560565 
L 477.265622 331.494682 
L 478.282201 328.192706 
L 479.298779 327.694275 
L 480.315358 330.846191 
L 481.331937 332.719982 
L 482.348515 331.150718 
L 483.365094 329.85367 
L 484.381672 327.552069 
L 485.398251 334.663335 
L 486.41483 328.665918 
L 487.431408 329.300324 
L 488.447987 330.330858 
L 489.464565 333.770168 
L 490.481144 333.815338 
L 491.497723 332.246737 
L 492.514301 330.892223 
L 493.53088 334.356355 
L 494.547459 333.387231 
L 495.564037 333.952241 
L 496.580616 333.284595 
L 497.597194 332.754945 
L 498.613773 336.800525 
L 499.630352 333.308357 
L 500.64693 331.3313 
L 501.663509 337.889254 
L 502.680087 334.411799 
L 503.696666 332.970126 
L 504.713245 336.158994 
L 505.729823 335.068211 
L 506.746402 335.710008 
L 507.762981 336.842017 
L 508.779559 336.020865 
L 509.796138 334.770511 
L 510.812716 338.059662 
L 511.829295 338.722735 
L 512.845874 337.624131 
L 513.862452 335.880117 
L 514.879031 335.791169 
L 515.895609 337.470657 
L 516.912188 340.18068 
L 517.928767 339.161613 
L 518.945345 336.562379 
L 519.961924 343.045766 
L 520.978502 338.994254 
L 521.995081 338.757267 
L 523.01166 338.183143 
L 524.028238 337.103097 
L 525.044817 336.444067 
L 526.061396 340.222105 
L 527.077974 338.52376 
L 528.094553 342.149617 
L 529.111131 336.029382 
L 530.12771 339.060866 
L 532.160867 340.524843 
L 533.177446 339.87201 
L 534.194024 340.479739 
L 535.210603 338.891618 
L 536.227182 335.786429 
L 537.24376 337.959578 
L 538.260339 341.492642 
L 539.276917 336.882183 
L 540.293496 341.987129 
L 541.310075 337.311086 
L 542.326653 338.91538 
L 543.343232 341.667126 
L 544.359811 341.500761 
L 545.376389 341.465036 
L 547.409546 337.349463 
L 548.426125 340.621049 
L 549.442704 341.576851 
L 550.459282 342.356081 
L 551.475861 337.936446 
L 552.492439 339.336859 
L 553.509018 344.535062 
L 554.525597 339.539811 
L 555.542175 336.837842 
L 558.591911 343.416773 
L 559.60849 342.152666 
L 560.625068 343.174086 
L 561.641647 341.340262 
L 562.658226 340.350756 
L 563.674804 341.567771 
L 564.691383 346.974493 
L 565.707961 337.537137 
L 566.72454 341.738974 
L 567.741119 342.729706 
L 569.774276 340.948244 
L 570.790854 341.214428 
L 571.807433 339.712638 
L 572.824012 340.655383 
L 573.84059 342.074189 
L 574.857169 343.980425 
L 575.873747 342.671346 
L 576.890326 343.442887 
L 577.906905 343.097863 
L 578.923483 344.014095 
L 579.940062 339.880859 
L 580.956641 345.103553 
L 581.973219 345.626939 
L 582.989798 345.781506 
L 584.006376 344.340031 
L 585.022955 340.808094 
L 586.039534 347.157395 
L 587.056112 343.129048 
L 588.072691 341.5399 
L 589.089269 341.309707 
L 591.122427 343.720803 
L 592.139005 345.176296 
L 593.155584 343.352381 
L 594.172163 346.911626 
L 595.188741 341.428515 
L 596.20532 338.828519 
L 597.221898 342.765166 
L 598.238477 342.27439 
L 599.255056 340.915038 
L 600.271634 346.010307 
L 601.288213 342.475221 
L 602.304791 343.430791 
L 603.32137 344.141851 
L 605.354527 344.793491 
L 606.371106 345.665879 
L 607.387684 346.307609 
L 608.404263 348.357343 
L 609.420842 344.450853 
L 610.43742 346.546684 
L 611.453999 345.787305 
L 612.470578 343.563353 
L 613.487156 345.464982 
L 614.503735 347.779805 
L 615.520313 348.843678 
L 617.553471 347.408865 
L 618.570049 347.993461 
L 619.586628 345.096726 
L 620.603206 346.94924 
L 621.619785 347.828654 
L 622.636364 350.432561 
L 622.636364 350.432561 
" clip-path="url(#p9aa59111df)" style="fill: none; stroke: #0000ff; stroke-width: 1.5; stroke-linecap: square"/>
   </g>
   <g id="line2d_26">
    <path d="M 115.363636 110.302828 
L 116.380215 110.85981 
L 117.396794 114.153104 
L 118.413372 115.565506 
L 119.429951 125.425833 
L 120.446529 129.898013 
L 121.463108 136.799119 
L 122.479687 135.346161 
L 123.496265 146.142389 
L 124.512844 155.69128 
L 125.529422 152.549985 
L 126.546001 156.690082 
L 127.56258 168.742795 
L 128.579158 167.151012 
L 129.595737 161.102244 
L 130.612316 173.454199 
L 131.628894 177.427583 
L 132.645473 171.682679 
L 133.662051 181.414389 
L 134.67863 186.678674 
L 135.695209 182.376255 
L 136.711787 187.39661 
L 137.728366 188.466101 
L 138.744944 193.751214 
L 140.778102 197.112992 
L 141.79468 202.883232 
L 142.811259 204.721695 
L 143.827837 205.105975 
L 144.844416 206.876633 
L 145.860995 209.901008 
L 146.877573 215.026004 
L 147.894152 212.483225 
L 148.910731 219.208835 
L 149.927309 221.078766 
L 150.943888 218.937117 
L 151.960466 218.927871 
L 152.977045 223.471204 
L 153.993624 224.074226 
L 155.010202 224.436036 
L 156.026781 225.226136 
L 157.043359 226.238493 
L 158.059938 229.680139 
L 159.076517 228.396479 
L 160.093095 231.204498 
L 161.109674 232.794955 
L 162.126253 234.10183 
L 163.142831 235.683438 
L 164.15941 236.643731 
L 165.175988 235.568308 
L 166.192567 236.356901 
L 167.209146 235.401563 
L 168.225724 240.04251 
L 169.242303 236.833692 
L 171.27546 241.991844 
L 172.292039 246.317544 
L 173.308617 244.413927 
L 174.325196 244.161761 
L 175.341774 243.147251 
L 176.358353 251.241577 
L 177.374932 249.472924 
L 178.39151 251.367295 
L 179.408089 251.85711 
L 180.424668 251.590512 
L 181.441246 258.05607 
L 182.457825 256.451031 
L 183.474403 254.548391 
L 184.490982 258.789119 
L 185.507561 258.574154 
L 186.524139 260.979417 
L 187.540718 256.168956 
L 188.557296 260.830683 
L 189.573875 264.694886 
L 190.590454 259.668648 
L 191.607032 260.194719 
L 192.623611 262.294395 
L 193.640189 268.213898 
L 195.673347 267.22025 
L 196.689925 268.21297 
L 197.706504 270.105486 
L 198.723083 265.656255 
L 199.739661 266.678636 
L 200.75624 268.249723 
L 201.772818 272.121615 
L 202.789397 271.629347 
L 203.805976 268.586396 
L 204.822554 273.961834 
L 205.839133 276.165405 
L 206.855711 272.498553 
L 207.87229 274.223544 
L 208.888869 276.309699 
L 209.905447 274.405452 
L 210.922026 271.06321 
L 211.938604 278.461272 
L 212.955183 280.312296 
L 213.971762 280.124058 
L 214.98834 276.210708 
L 216.004919 275.747008 
L 217.021498 280.279752 
L 218.038076 277.71336 
L 219.054655 280.704711 
L 220.071233 275.146868 
L 221.087812 281.06445 
L 222.104391 283.333904 
L 223.120969 281.915827 
L 224.137548 282.565014 
L 225.154126 285.222144 
L 226.170705 281.266209 
L 227.187284 284.485135 
L 228.203862 289.117764 
L 229.220441 292.556776 
L 230.237019 286.955619 
L 231.253598 285.528759 
L 232.270177 292.261661 
L 233.286755 290.655445 
L 234.303334 291.296811 
L 235.319913 291.417741 
L 236.336491 291.841507 
L 237.35307 293.121091 
L 238.369648 291.999023 
L 239.386227 293.572264 
L 240.402806 292.839364 
L 241.419384 293.735083 
L 242.435963 289.067026 
L 243.452541 292.270012 
L 245.485699 290.974753 
L 247.518856 292.914195 
L 248.535435 291.788283 
L 249.552013 297.118286 
L 250.568592 294.544537 
L 251.58517 298.040616 
L 252.601749 296.174315 
L 253.618328 295.243037 
L 254.634906 296.656938 
L 255.651485 297.823315 
L 256.668063 299.872518 
L 257.684642 298.962416 
L 258.701221 300.447006 
L 259.717799 302.210175 
L 260.734378 299.71404 
L 262.767535 300.043091 
L 263.784114 302.594106 
L 264.800692 299.851275 
L 265.817271 302.723486 
L 266.83385 301.563241 
L 267.850428 302.595133 
L 268.867007 305.587512 
L 269.883585 301.315119 
L 270.900164 301.329137 
L 271.916743 297.722435 
L 272.933321 300.256283 
L 273.9499 305.089743 
L 275.983057 300.052602 
L 276.999636 305.101475 
L 278.016214 308.599775 
L 279.032793 305.692733 
L 280.049371 308.011168 
L 281.06595 308.964783 
L 282.082529 306.778213 
L 283.099107 309.583614 
L 284.115686 310.132949 
L 285.132265 303.240808 
L 286.148843 309.339336 
L 287.165422 305.560668 
L 288.182 312.618279 
L 289.198579 307.436182 
L 290.215158 306.586131 
L 291.231736 306.449593 
L 293.264893 309.591932 
L 294.281472 307.857894 
L 295.298051 308.329747 
L 296.314629 310.809908 
L 297.331208 310.72941 
L 298.347786 307.243504 
L 299.364365 312.04283 
L 300.380944 308.552417 
L 301.397522 311.928164 
L 302.414101 310.69839 
L 303.43068 316.010662 
L 304.447258 310.738059 
L 305.463837 312.876211 
L 306.480415 311.123581 
L 307.496994 309.768206 
L 308.513573 315.420962 
L 309.530151 315.432595 
L 310.54673 317.219392 
L 311.563308 314.884187 
L 312.579887 313.150282 
L 313.596466 312.276966 
L 314.613044 316.274692 
L 315.629623 314.190957 
L 316.646201 319.901345 
L 317.66278 319.492591 
L 318.679359 318.077596 
L 319.695937 317.326469 
L 320.712516 317.920709 
L 321.729095 318.772285 
L 322.745673 318.237034 
L 323.762252 318.491022 
L 324.77883 317.285441 
L 325.795409 319.361355 
L 326.811988 319.810739 
L 327.828566 321.469647 
L 328.845145 318.731157 
L 329.861723 320.462411 
L 331.894881 323.009648 
L 332.911459 321.468255 
L 333.928038 320.706656 
L 334.944617 320.822316 
L 335.961195 324.08628 
L 336.977774 318.855765 
L 337.994352 322.670556 
L 339.010931 323.071455 
L 340.02751 320.19583 
L 341.044088 325.077443 
L 342.060667 323.480209 
L 343.077245 323.521038 
L 344.093824 326.851548 
L 345.110403 323.941258 
L 346.126981 328.546148 
L 347.14356 328.917255 
L 348.160138 328.651038 
L 349.176717 326.965981 
L 350.193296 329.920182 
L 351.209874 329.334161 
L 352.226453 331.10124 
L 353.243032 328.881695 
L 354.25961 330.941669 
L 355.276189 329.56326 
L 356.292767 330.147857 
L 357.309346 329.67554 
L 358.325925 330.393295 
L 359.342503 333.404132 
L 360.359082 330.251653 
L 361.37566 331.592612 
L 362.392239 327.391637 
L 363.408818 331.283048 
L 364.425396 333.46183 
L 365.441975 335.247302 
L 366.458553 327.423949 
L 367.475132 332.83362 
L 368.491711 329.300092 
L 369.508289 331.489976 
L 370.524868 332.71067 
L 371.541447 332.562333 
L 372.558025 332.821988 
L 373.574604 333.604002 
L 374.591182 330.67227 
L 375.607761 329.305461 
L 376.62434 332.313316 
L 377.640918 330.227791 
L 378.657497 326.635075 
L 379.674075 331.585388 
L 380.690654 330.57792 
L 381.707233 334.190421 
L 382.723811 332.428744 
L 383.74039 328.195457 
L 384.756968 332.576849 
L 385.773547 329.319712 
L 386.790126 332.522863 
L 387.806704 331.972003 
L 388.823283 330.410594 
L 389.839862 329.815691 
L 390.85644 330.790847 
L 391.873019 331.286461 
L 392.889597 333.597407 
L 393.906176 334.569183 
L 395.939333 332.236298 
L 396.955912 335.962836 
L 397.97249 335.360476 
L 398.989069 331.211862 
L 400.005648 334.690079 
L 401.022226 333.367015 
L 402.038805 336.343155 
L 403.055383 334.678878 
L 404.071962 334.934423 
L 405.088541 335.648897 
L 406.105119 335.727075 
L 407.121698 335.520875 
L 408.138277 332.054092 
L 409.154855 335.703844 
L 410.171434 333.13659 
L 411.188012 331.828804 
L 412.204591 334.229726 
L 413.22117 334.743236 
L 414.237748 337.015408 
L 415.254327 335.167864 
L 416.270905 327.541663 
L 417.287484 333.922514 
L 418.304063 338.699768 
L 419.320641 334.530674 
L 420.33722 336.092183 
L 421.353799 332.162097 
L 422.370377 333.570232 
L 423.386956 338.186888 
L 424.403534 334.427773 
L 425.420113 335.667621 
L 426.436692 332.887904 
L 427.45327 339.47585 
L 428.469849 339.757543 
L 429.486427 339.659647 
L 430.503006 340.77101 
L 431.519585 337.221442 
L 433.552742 344.698478 
L 434.56932 338.904841 
L 435.585899 339.886294 
L 436.602478 342.924041 
L 437.619056 342.036873 
L 438.635635 344.201703 
L 439.652214 340.949338 
L 440.668792 340.08792 
L 441.685371 341.904842 
L 442.701949 339.740708 
L 443.718528 340.946919 
L 444.735107 344.56469 
L 445.751685 341.451249 
L 446.768264 344.808239 
L 447.784842 345.117902 
L 448.801421 341.677996 
L 449.818 345.998343 
L 450.834578 346.681201 
L 451.851157 346.24113 
L 452.867735 343.001888 
L 453.884314 344.754087 
L 454.900893 343.065882 
L 455.917471 343.546219 
L 456.93405 346.464363 
L 457.950629 342.209833 
L 458.967207 342.545578 
L 459.983786 345.961126 
L 461.000364 348.334376 
L 462.016943 346.253856 
L 463.033522 345.739649 
L 464.0501 345.903363 
L 465.066679 345.133975 
L 466.083257 346.454256 
L 467.099836 345.990025 
L 468.116415 346.807565 
L 469.132993 349.565343 
L 470.149572 346.633512 
L 471.16615 349.901188 
L 472.182729 348.941144 
L 473.199308 347.523563 
L 474.215886 347.89868 
L 475.232465 346.500818 
L 476.249044 349.738236 
L 477.265622 349.759778 
L 478.282201 346.444943 
L 479.298779 345.814182 
L 480.315358 348.865816 
L 481.331937 350.663781 
L 483.365094 347.78756 
L 484.381672 345.584784 
L 485.398251 352.565974 
L 486.41483 346.525143 
L 487.431408 347.194148 
L 488.447987 348.102891 
L 489.464565 351.379448 
L 490.481144 351.605664 
L 491.497723 349.84929 
L 492.514301 348.73849 
L 493.53088 352.306517 
L 494.547459 351.001846 
L 495.564037 351.792742 
L 497.597194 350.496787 
L 498.613773 354.644274 
L 499.630352 351.301966 
L 500.64693 349.419757 
L 501.663509 355.93665 
L 502.680087 352.668775 
L 503.696666 351.233299 
L 504.713245 354.227832 
L 505.729823 353.344872 
L 506.746402 354.050995 
L 507.762981 355.002223 
L 508.779559 354.26369 
L 509.796138 353.169394 
L 510.812716 356.340697 
L 511.829295 356.809203 
L 512.845874 356.04144 
L 513.862452 354.426707 
L 514.879031 354.372987 
L 515.895609 355.947752 
L 516.912188 358.680906 
L 517.928767 357.722884 
L 518.945345 354.735542 
L 519.961924 361.55968 
L 520.978502 357.912811 
L 521.995081 357.269954 
L 523.01166 356.839792 
L 524.028238 355.791859 
L 525.044817 355.187478 
L 526.061396 358.901754 
L 527.077974 357.424786 
L 528.094553 360.666745 
L 529.111131 354.512938 
L 530.12771 357.717946 
L 531.144289 358.591228 
L 532.160867 359.294269 
L 533.177446 358.624733 
L 534.194024 358.682364 
L 535.210603 357.70522 
L 536.227182 354.555424 
L 537.24376 356.492845 
L 538.260339 360.043341 
L 539.276917 355.365574 
L 540.293496 360.487986 
L 541.310075 355.636928 
L 542.326653 357.37713 
L 543.343232 359.847647 
L 544.359811 359.743984 
L 545.376389 359.756942 
L 547.409546 356.10888 
L 548.426125 359.33702 
L 549.442704 360.238505 
L 550.459282 360.764111 
L 551.475861 356.570228 
L 552.492439 357.933557 
L 553.509018 363.137427 
L 554.525597 357.900715 
L 555.542175 355.1895 
L 556.558754 357.537264 
L 558.591911 361.525379 
L 559.60849 360.428499 
L 560.625068 361.428676 
L 561.641647 359.256025 
L 562.658226 358.522429 
L 563.674804 359.896363 
L 564.691383 364.917332 
L 565.707961 355.704733 
L 566.72454 359.811391 
L 567.741119 360.702271 
L 568.757697 359.701697 
L 569.774276 358.981821 
L 570.790854 359.017082 
L 571.807433 357.757814 
L 572.824012 358.885747 
L 573.84059 360.406096 
L 574.857169 362.389515 
L 575.873747 360.985721 
L 576.890326 361.932807 
L 577.906905 361.799086 
L 578.923483 362.639228 
L 579.940062 358.44372 
L 580.956641 363.448881 
L 581.973219 363.731635 
L 582.989798 364.370184 
L 584.006376 362.716975 
L 585.022955 359.453508 
L 586.039534 365.804931 
L 587.056112 361.763394 
L 588.072691 360.215008 
L 589.089269 360.078967 
L 591.122427 362.6555 
L 592.139005 363.88693 
L 593.155584 362.404461 
L 594.172163 365.999962 
L 595.188741 360.975282 
L 596.20532 357.815047 
L 597.221898 361.927936 
L 598.238477 361.251076 
L 599.255056 360.229358 
L 600.271634 364.746427 
L 601.288213 361.260157 
L 602.304791 362.174069 
L 603.32137 362.919231 
L 604.337949 362.81 
L 605.354527 363.310652 
L 606.371106 364.165011 
L 607.387684 364.727868 
L 608.404263 366.846467 
L 609.420842 362.669949 
L 610.43742 364.990903 
L 611.453999 364.301384 
L 612.470578 362.122238 
L 614.503735 365.992903 
L 615.520313 367.325213 
L 616.536892 367.018035 
L 617.553471 366.33531 
L 618.570049 366.590093 
L 619.586628 363.95288 
L 620.603206 365.906738 
L 621.619785 366.763351 
L 622.636364 369.36 
L 622.636364 369.36 
" clip-path="url(#p9aa59111df)" style="fill: none; stroke-dasharray: 5.55,2.4; stroke-dashoffset: 0; stroke: #ff0000; stroke-width: 1.5"/>
   </g>
   <g id="patch_3">
    <path d="M 90 384.48 
L 90 51.84 
" style="fill: none; stroke: #000000; stroke-width: 0.8; stroke-linejoin: miter; stroke-linecap: square"/>
   </g>
   <g id="patch_4">
    <path d="M 648 384.48 
L 648 51.84 
" style="fill: none; stroke: #000000; stroke-width: 0.8; stroke-linejoin: miter; stroke-linecap: square"/>
   </g>
   <g id="patch_5">
    <path d="M 90 384.48 
L 648 384.48 
" style="fill: none; stroke: #000000; stroke-width: 0.8; stroke-linejoin: miter; stroke-linecap: square"/>
   </g>
   <g id="patch_6">
    <path d="M 90 51.84 
L 648 51.84 
" style="fill: none; stroke: #000000; stroke-width: 0.8; stroke-linejoin: miter; stroke-linecap: square"/>
   </g>
   <g id="text_15">
    <!-- Loss Curves over Epochs -->
    <g transform="translate(294.411563 45.84) scale(0.12 -0.12)">
     <defs>
      <path id="DejaVuSans-20" transform="scale(0.015625)"/>
      <path id="DejaVuSans-43" d="M 4122 4306 
L 4122 3641 
Q 3803 3938 3442 4084 
Q 3081 4231 2675 4231 
Q 1875 4231 1450 3742 
Q 1025 3253 1025 2328 
Q 1025 1406 1450 917 
Q 1875 428 2675 428 
Q 3081 428 3442 575 
Q 3803 722 4122 1019 
L 4122 359 
Q 3791 134 3420 21 
Q 3050 -91 2638 -91 
Q 1578 -91 968 557 
Q 359 1206 359 2328 
Q 359 3453 968 4101 
Q 1578 4750 2638 4750 
Q 3056 4750 3426 4639 
Q 3797 4528 4122 4306 
z
" transform="scale(0.015625)"/>
      <path id="DejaVuSans-75" d="M 544 1381 
L 544 3500 
L 1119 3500 
L 1119 1403 
Q 1119 906 1312 657 
Q 1506 409 1894 409 
Q 2359 409 2629 706 
Q 2900 1003 2900 1516 
L 2900 3500 
L 3475 3500 
L 3475 0 
L 2900 0 
L 2900 538 
Q 2691 219 2414 64 
Q 2138 -91 1772 -91 
Q 1169 -91 856 284 
Q 544 659 544 1381 
z
M 1991 3584 
L 1991 3584 
z
" transform="scale(0.015625)"/>
      <path id="DejaVuSans-72" d="M 2631 2963 
Q 2534 3019 2420 3045 
Q 2306 3072 2169 3072 
Q 1681 3072 1420 2755 
Q 1159 2438 1159 1844 
L 1159 0 
L 581 0 
L 581 3500 
L 1159 3500 
L 1159 2956 
Q 1341 3275 1631 3429 
Q 1922 3584 2338 3584 
Q 2397 3584 2469 3576 
Q 2541 3569 2628 3553 
L 2631 2963 
z
" transform="scale(0.015625)"/>
      <path id="DejaVuSans-76" d="M 191 3500 
L 800 3500 
L 1894 563 
L 2988 3500 
L 3597 3500 
L 2284 0 
L 1503 0 
L 191 3500 
z
" transform="scale(0.015625)"/>
      <path id="DejaVuSans-65" d="M 3597 1894 
L 3597 1613 
L 953 1613 
Q 991 1019 1311 708 
Q 1631 397 2203 397 
Q 2534 397 2845 478 
Q 3156 559 3463 722 
L 3463 178 
Q 3153 47 2828 -22 
Q 2503 -91 2169 -91 
Q 1331 -91 842 396 
Q 353 884 353 1716 
Q 353 2575 817 3079 
Q 1281 3584 2069 3584 
Q 2775 3584 3186 3129 
Q 3597 2675 3597 1894 
z
M 3022 2063 
Q 3016 2534 2758 2815 
Q 2500 3097 2075 3097 
Q 1594 3097 1305 2825 
Q 1016 2553 972 2059 
L 3022 2063 
z
" transform="scale(0.015625)"/>
     </defs>
     <use xlink:href="#DejaVuSans-4c"/>
     <use xlink:href="#DejaVuSans-6f" x="53.962891"/>
     <use xlink:href="#DejaVuSans-73" x="115.144531"/>
     <use xlink:href="#DejaVuSans-73" x="167.244141"/>
     <use xlink:href="#DejaVuSans-20" x="219.34375"/>
     <use xlink:href="#DejaVuSans-43" x="251.130859"/>
     <use xlink:href="#DejaVuSans-75" x="320.955078"/>
     <use xlink:href="#DejaVuSans-72" x="384.333984"/>
     <use xlink:href="#DejaVuSans-76" x="425.447266"/>
     <use xlink:href="#DejaVuSans-65" x="484.626953"/>
     <use xlink:href="#DejaVuSans-73" x="546.150391"/>
     <use xlink:href="#DejaVuSans-20" x="598.25"/>
     <use xlink:href="#DejaVuSans-6f" x="630.037109"/>
     <use xlink:href="#DejaVuSans-76" x="691.21875"/>
     <use xlink:href="#DejaVuSans-65" x="750.398438"/>
     <use xlink:href="#DejaVuSans-72" x="811.921875"/>
     <use xlink:href="#DejaVuSans-20" x="853.035156"/>
     <use xlink:href="#DejaVuSans-45" x="884.822266"/>
     <use xlink:href="#DejaVuSans-70" x="948.005859"/>
     <use xlink:href="#DejaVuSans-6f" x="1011.482422"/>
     <use xlink:href="#DejaVuSans-63" x="1072.664062"/>
     <use xlink:href="#DejaVuSans-68" x="1127.644531"/>
     <use xlink:href="#DejaVuSans-73" x="1191.023438"/>
    </g>
   </g>
   <g id="legend_1">
    <g id="patch_7">
     <path d="M 560.010937 89.19625 
L 641 89.19625 
Q 643 89.19625 643 87.19625 
L 643 58.84 
Q 643 56.84 641 56.84 
L 560.010937 56.84 
Q 558.010937 56.84 558.010937 58.84 
L 558.010937 87.19625 
Q 558.010937 89.19625 560.010937 89.19625 
z
" style="fill: #ffffff; opacity: 0.8; stroke: #cccccc; stroke-linejoin: miter"/>
    </g>
    <g id="line2d_27">
     <path d="M 562.010937 64.938437 
L 572.010937 64.938437 
L 582.010937 64.938437 
" style="fill: none; stroke: #0000ff; stroke-width: 1.5; stroke-linecap: square"/>
    </g>
    <g id="text_16">
     <!-- Data Loss -->
     <g transform="translate(590.010937 68.438437) scale(0.1 -0.1)">
      <defs>
       <path id="DejaVuSans-44" d="M 1259 4147 
L 1259 519 
L 2022 519 
Q 2988 519 3436 956 
Q 3884 1394 3884 2338 
Q 3884 3275 3436 3711 
Q 2988 4147 2022 4147 
L 1259 4147 
z
M 628 4666 
L 1925 4666 
Q 3281 4666 3915 4102 
Q 4550 3538 4550 2338 
Q 4550 1131 3912 565 
Q 3275 0 1925 0 
L 628 0 
L 628 4666 
z
" transform="scale(0.015625)"/>
       <path id="DejaVuSans-61" d="M 2194 1759 
Q 1497 1759 1228 1600 
Q 959 1441 959 1056 
Q 959 750 1161 570 
Q 1363 391 1709 391 
Q 2188 391 2477 730 
Q 2766 1069 2766 1631 
L 2766 1759 
L 2194 1759 
z
M 3341 1997 
L 3341 0 
L 2766 0 
L 2766 531 
Q 2569 213 2275 61 
Q 1981 -91 1556 -91 
Q 1019 -91 701 211 
Q 384 513 384 1019 
Q 384 1609 779 1909 
Q 1175 2209 1959 2209 
L 2766 2209 
L 2766 2266 
Q 2766 2663 2505 2880 
Q 2244 3097 1772 3097 
Q 1472 3097 1187 3025 
Q 903 2953 641 2809 
L 641 3341 
Q 956 3463 1253 3523 
Q 1550 3584 1831 3584 
Q 2591 3584 2966 3190 
Q 3341 2797 3341 1997 
z
" transform="scale(0.015625)"/>
       <path id="DejaVuSans-74" d="M 1172 4494 
L 1172 3500 
L 2356 3500 
L 2356 3053 
L 1172 3053 
L 1172 1153 
Q 1172 725 1289 603 
Q 1406 481 1766 481 
L 2356 481 
L 2356 0 
L 1766 0 
Q 1100 0 847 248 
Q 594 497 594 1153 
L 594 3053 
L 172 3053 
L 172 3500 
L 594 3500 
L 594 4494 
L 1172 4494 
z
" transform="scale(0.015625)"/>
      </defs>
      <use xlink:href="#DejaVuSans-44"/>
      <use xlink:href="#DejaVuSans-61" x="77.001953"/>
      <use xlink:href="#DejaVuSans-74" x="138.28125"/>
      <use xlink:href="#DejaVuSans-61" x="177.490234"/>
      <use xlink:href="#DejaVuSans-20" x="238.769531"/>
      <use xlink:href="#DejaVuSans-4c" x="270.556641"/>
      <use xlink:href="#DejaVuSans-6f" x="324.519531"/>
      <use xlink:href="#DejaVuSans-73" x="385.701172"/>
      <use xlink:href="#DejaVuSans-73" x="437.800781"/>
     </g>
    </g>
    <g id="line2d_28">
     <path d="M 562.010937 79.616562 
L 572.010937 79.616562 
L 582.010937 79.616562 
" style="fill: none; stroke-dasharray: 5.55,2.4; stroke-dashoffset: 0; stroke: #ff0000; stroke-width: 1.5"/>
    </g>
    <g id="text_17">
     <!-- Total Loss -->
     <g transform="translate(590.010937 83.116562) scale(0.1 -0.1)">
      <defs>
       <path id="DejaVuSans-54" d="M -19 4666 
L 3928 4666 
L 3928 4134 
L 2272 4134 
L 2272 0 
L 1638 0 
L 1638 4134 
L -19 4134 
L -19 4666 
z
" transform="scale(0.015625)"/>
       <path id="DejaVuSans-6c" d="M 603 4863 
L 1178 4863 
L 1178 0 
L 603 0 
L 603 4863 
z
" transform="scale(0.015625)"/>
      </defs>
      <use xlink:href="#DejaVuSans-54"/>
      <use xlink:href="#DejaVuSans-6f" x="44.083984"/>
      <use xlink:href="#DejaVuSans-74" x="105.265625"/>
      <use xlink:href="#DejaVuSans-61" x="144.474609"/>
      <use xlink:href="#DejaVuSans-6c" x="205.753906"/>
      <use xlink:href="#DejaVuSans-20" x="233.537109"/>
      <use xlink:href="#DejaVuSans-4c" x="265.324219"/>
      <use xlink:href="#DejaVuSans-6f" x="319.287109"/>
      <use xlink:href="#DejaVuSans-73" x="380.46875"/>
      <use xlink:href="#DejaVuSans-73" x="432.568359"/>
     </g>
    </g>
   </g>
  </g>
 </g>
 <defs>
  <clipPath id="p9aa59111df">
   <rect x="90" y="51.84" width="558" height="332.64"/>
  </clipPath>
 </defs>
</svg>
